<?xml version="1.0" encoding="utf-8"?>
<!-- Generator: Adobe Illustrator 19.0.0, SVG Export Plug-In . SVG Version: 6.00 Build 0)  -->
<svg version="1.1" id="Lager_1" xmlns="http://www.w3.org/2000/svg" xmlns:xlink="http://www.w3.org/1999/xlink" x="0px" y="0px"
	 viewBox="0 0 834.3 156" style="enable-background:new 0 0 834.3 156;" xml:space="preserve">
<style type="text/css">
	.st0{fill:#F4E79A;}
	.st1{fill:#FFFFFF;}
</style>
<g id="XMLID_1_">
	<path id="XMLID_4_" class="st0" d="M73.4,80l1.3-0.4l-1.2,0.9c0.3,0.4,0.4,1,0.5,1.6c0.1,0.6,0.2,1.2,0.3,1.7
		c0.1,0.5,0.2,1,0.3,1.4c0.1,0.4,0.3,0.6,0.6,0.6c0.4,0,0.6-0.1,0.8-0.4c0.2-0.3,0.4-0.6,0.6-0.9c0.2-0.3,0.5-0.6,0.9-0.9
		c0.4-0.3,0.9-0.4,1.6-0.4c0.4,0,0.7,0,0.8,0.1c0.8,1,1.7,1.6,2.6,1.9c0.9,0.3,1.9,0.5,2.9,0.6c1,0.1,2,0.3,3.1,0.5
		c1,0.2,2.1,0.7,3.1,1.5c0.7,0.5,1.6,1.4,2.6,2.6c1,1.2,2,2.4,2.9,3.6c0.9,1.2,1.7,2.3,2.3,3.3c0.6,1,0.9,1.5,0.9,1.6
		c0,0.4-0.3,0.7-0.9,0.9c-0.6,0.3-1.4,1-2.3,2.1c0.8,0.5,1.7,1,2.8,1.5c1.1,0.5,1.6,1.3,1.6,2.5c0,0.6-0.2,1.1-0.6,1.5
		c-0.4,0.4-0.8,0.7-1.3,0.9c-0.4,0.3-0.9,0.5-1.3,0.7c-0.4,0.2-0.6,0.5-0.6,0.9c0,0.4,0.3,1.2,0.8,2.2c0.5,1,0.8,1.8,0.8,2.5
		c0,0.8-0.2,1.4-0.5,1.8c-0.4,0.4-0.8,0.7-1.4,1c-0.6,0.3-1.3,0.6-2.1,1c-0.8,0.4-1.8,1-2.7,1.8c0.4,0,1,0.3,1.5,0.8
		c0.6,0.5,0.9,0.9,0.9,1.2c-0.4,0.7-0.8,1.1-1.2,1.1c-0.3,0-0.5-0.1-0.8-0.3c-0.3-0.2-0.5-0.4-0.8-0.5c-1,1.2-2,2.3-3.1,3.1
		c-1.1,0.8-2.1,1.5-3.2,2.2c-1.1,0.7-2.1,1.4-3.2,2.1c-1.1,0.7-2.1,1.6-3.2,2.5c-0.7,0.7-1.6,1.2-2.6,1.5c-1,0.3-2.1,0.6-3.2,0.8
		c-1.1,0.2-2.2,0.4-3.3,0.7c-1.1,0.2-2.1,0.5-3,0.9c-0.4,0.2-0.8,0.3-1.2,0.5c-0.4,0.1-0.8,0.2-1.2,0.2c-0.8,0-1.5-0.2-2.1-0.7
		c-0.6-0.5-1.5-0.7-2.5-0.7c-2.7,0-5.4,0.4-8.3,1.3c-2.9,0.8-5.6,1.3-8.2,1.3c-0.6,0-1.1-0.2-1.3-0.5c-0.3-0.4-0.5-0.7-0.6-1.1
		c-0.1-0.4-0.3-0.8-0.4-1.1c-0.1-0.4-0.3-0.5-0.6-0.5c-0.4,0-0.7,0.1-1.1,0.4c-0.4,0.3-0.8,0.5-1.2,0.7l-1.1,0.5l0.8-0.9
		c-4.4-0.7-7-3.2-7.9-7.6c-0.2-0.9-0.6-1.9-1.3-3c-0.7-1.1-1.7-2.2-2.9-3.1l0.1-0.1c-0.4-0.4-0.7-0.8-0.7-1.5c0-0.6,0-1.2,0.1-1.8
		c0-0.6,0.1-1.1,0.1-1.5c0-0.4-0.1-0.6-0.3-0.6c-0.2,0-0.4,0.1-0.8,0.2c-0.4,0.1-0.7,0.2-0.9,0.2c-0.5,0-0.8-0.2-0.9-0.7
		c-0.1-0.4-0.1-1-0.1-1.7c0-0.7,0.1-1.4,0.3-2.1c0.1-0.8,0.2-1.4,0.2-2.1c0-2.2,0.4-4,1.2-5.3c0.8-1.3,2-1.9,3.5-1.9
		c3.2,0,5.4,1,6.7,3.1c1.2,2,2.1,4.6,2.7,7.7c0.4,1.8,0.8,3.7,1.2,5.8c0.4,2.1,1.6,4,3.3,5.8c0.4,0.4,0.7,0.8,1,1.5
		c0.3,0.6,0.6,1.2,0.9,1.8c0.3,0.6,0.5,1.1,0.7,1.5c0.2,0.4,0.3,0.6,0.3,0.5c0.2,0,0.4-0.2,0.7-0.5c0.3-0.4,0.5-0.8,0.8-1.3
		c0.3-0.5,0.6-0.9,1-1.3c0.4-0.4,0.8-0.5,1.3-0.5c0.9,0,1.5,0.3,1.9,0.8c0.4,0.5,0.5,1.1,0.5,1.6c0,0.4-0.1,1-0.2,1.5
		c-0.1,0.6-0.2,1-0.2,1.3c0.7,0.2,1.3,0.3,1.9,0.3c2.2,0,3.3-1.1,3.3-3.2c0-0.2,0-0.3-0.1-0.5c-0.1-0.1-0.1-0.3-0.1-0.5
		c0-0.7,0.1-1.3,0.2-1.7c0.1-0.4,0.5-0.7,1-0.7c0.2,0,0.4,0.1,0.6,0.4c0.2,0.3,0.5,0.6,0.7,0.9c0.3,0.3,0.5,0.6,0.7,0.9
		c0.2,0.3,0.5,0.4,0.7,0.3c0.7-1,1.6-1.6,2.5-1.9c1-0.3,2-0.4,3-0.5c1-0.1,2.1-0.2,3.2-0.4c1.1-0.2,2.2-0.7,3.1-1.5
		c0.5-0.4,1.5-1,2.9-1.6c1.4-0.6,2.8-1.3,4.2-2c1.4-0.7,2.7-1.5,3.8-2.5c1.1-0.9,1.7-2,1.7-3.1c-0.3-1.1-0.5-2.3-0.7-3.8
		c-0.2-1.5-0.4-2.9-0.7-4.2c-0.3-1.3-0.7-2.5-1.3-3.4S80,102,78.9,102c-0.4,0-1.1,0.2-2.1,0.6c-0.9,0.4-1.8,0.6-2.5,0.6
		c-0.4,0-0.7-0.1-0.9-0.4c-0.1-0.3-0.2-0.5-0.2-0.7c0-0.5,0.2-1.1,0.5-1.8c0.4-0.7,0.6-1.4,0.8-2.1c-1.5,0.8-2.7,1.5-3.5,2
		c-0.8,0.5-1.4,0.8-1.9,0.8c-0.3,0-0.8-0.2-1.7-0.7c-0.8-0.4-1.7-1-2.6-1.7c-0.9-0.7-1.7-1.4-2.3-2.2c-0.7-0.8-1-1.6-1-2.4
		c0-0.3,0-0.6,0.1-0.9c0-0.4,0.1-0.7,0.1-0.9c-0.7,0.5-1.4,1.1-2.2,1.6c-0.8,0.5-1.5,0.8-2.2,0.8c-0.4,0-1.2-0.4-2.7-1.1
		c-1.4-0.7-2.9-1.5-4.4-2.3c-1.5-0.8-3.5-2-6-3.4c-0.4-0.6-0.8-1.3-1.1-2c-0.3-0.7-0.7-1.2-1.2-1.5c-0.5-0.3-1.2-0.4-1.9-0.5
		c-0.7,0-1.4-0.2-2.1-0.6c-1-0.4-1.8-0.9-2.6-1.7c-0.8-0.8-1.4-1.7-1.9-2.7c-0.5-1-1-2-1.3-3c-0.3-1-0.5-1.9-0.5-2.7
		c0-1.5,0.4-3,1.3-4.3c0.9-1.4,1.3-2.8,1.3-4.3c0-0.2,0-0.4-0.1-0.7c0-0.3-0.1-0.5-0.1-0.7c0-1,0.5-1.5,1.5-1.5c0.3,0,0.5,0,0.6,0.1
		c0.1,0,0.3,0.1,0.5,0.1c0.6,0,1.1-0.2,1.5-0.7c0.4-0.4,0.6-0.9,0.9-1.4c0.2-0.5,0.4-1,0.7-1.4c0.2-0.4,0.5-0.7,0.9-0.7
		c1.6,0,2.8-0.5,3.7-1.5c0.8-1,1.6-2.2,2.3-3.5c0.7-1.3,1.4-2.4,2.1-3.5c0.7-1,1.7-1.5,3.1-1.5c0.4,0,0.8,0.2,1.1,0.6
		c0.3,0.4,0.6,0.9,0.9,1.4c0.3,0.5,0.5,1,0.7,1.4c0.2,0.4,0.4,0.6,0.7,0.6c0.5,0,1-0.3,1.5-1c0.5-0.7,1-1.4,1.4-2.3
		c0.4-0.9,0.9-1.7,1.5-2.5c0.5-0.8,1.1-1.3,1.6-1.5c0.5-0.2,1-0.3,1.5-0.4c0.5-0.1,1-0.1,1.5-0.1c1.1,0,2,0.2,2.8,0.5
		c0.8,0.4,1.6,0.5,2.3,0.5c0.4,0,1-0.2,1.8-0.6c0.8-0.4,1.4-0.6,1.9-0.6c0.5,0,1,0.2,1.3,0.5c0.3,0.4,0.6,0.8,0.8,1.2
		c0.2,0.4,0.5,0.8,0.7,1.2c0.3,0.4,0.6,0.5,1.1,0.5c0.7,0,1.2-0.5,1.6-1.5c0.4-1,0.5-1.8,0.5-2.5c0-0.3,0-0.6-0.1-0.9
		c-0.1-0.3-0.1-0.6-0.1-0.9c0-0.7,0.4-1.1,1.2-1.1H81c0.7,0,1.4-0.2,2-0.5c0.6-0.4,1.3-0.5,2-0.5c0.6,0,1.2,0.2,1.7,0.5
		c0.5,0.3,1,0.6,1.5,1c0.5,0.4,1,0.7,1.5,1c0.5,0.3,1,0.5,1.5,0.5c1.2,0,2.4-0.3,3.6-0.9c1.2-0.6,2.3-0.9,3.2-0.9
		c0.5,0,1.1,0.2,1.7,0.7c0.6,0.4,1.2,0.7,1.9,0.7c1.8,0,2.8,0.6,3.2,1.9c0.4,1.2,0.5,2.7,0.5,4.3c0,0.6-0.1,1.3-0.4,2
		c-0.3,0.7-0.6,1.4-1.1,2.1c-0.5,0.7-1,1.2-1.5,1.7c-0.5,0.4-1.1,0.7-1.6,0.7c-0.8,0-1.6-0.1-2.4-0.4c-0.8-0.3-1.6-0.4-2.4-0.4
		c-1.1,0-2.1,0.1-3.1,0.2c-1,0.1-2.1,0.2-3.1,0.2c-0.5,0-1.1,0-1.7-0.1c-0.6,0-1.1-0.2-1.5-0.5c-0.6,0.5-1.2,0.9-1.7,1.1
		c-0.5,0.2-1,0.3-1.4,0.3c-0.6,0-1.2-0.1-1.7-0.3c-0.5-0.2-1.1-0.3-1.7-0.3c-0.4,0-1.2,0.2-2.1,0.6c-1,0.4-2,0.8-3.1,1.3
		c-1.1,0.5-2.2,0.9-3.3,1.3c-1.1,0.4-2,0.6-2.7,0.6c-1,0-1.6-0.4-2-1.3c-0.4-0.9-0.7-1.3-0.9-1.3c-0.3,0-0.5,0.2-0.7,0.6
		c-0.2,0.4-0.5,0.9-0.8,1.4c-0.3,0.5-0.7,1-1.1,1.4c-0.4,0.4-0.8,0.6-1.3,0.6c-0.9,0.1-1.7,0.3-2.5,0.7c-0.8,0.4-1.5,0.8-2.3,1.3
		c-0.8,0.4-1.5,0.9-2.3,1.4c-0.8,0.5-1.6,0.9-2.4,1.1c-1,0.3-2.1,0.6-3.3,0.9c-1.2,0.4-2.4,0.8-3.5,1.3c-1.1,0.5-2,1.2-2.8,1.9
		c-0.8,0.8-1.1,1.7-1.1,2.7c0,0.7,0.3,1.5,1,2.5c0.7,0.9,1.4,1.4,2.1,1.4c0.8,0,1.5-0.1,2.2-0.3c0.7-0.2,1.2-0.3,1.5-0.3
		c0.4,0,0.6,0.2,0.7,0.7c0.1,0.4,0.2,0.9,0.3,1.5c0.1,0.5,0.2,1,0.3,1.5c0.1,0.4,0.5,0.7,1,0.7h0.8c0.6,0,1.1,0.1,1.4,0.3
		c0.3,0.2,0.6,0.5,0.8,0.7c0.2,0.3,0.5,0.6,0.8,0.9c0.3,0.3,0.7,0.6,1.3,0.9c0.1-0.3,0.2-0.6,0.4-0.9c0.2-0.3,0.3-0.6,0.3-0.7
		c-0.2-0.3-0.3-0.6-0.3-1.1c0-0.9,0.2-1.6,0.7-2.1c0.4-0.5,1-1.1,1.6-1.7c0.4,0.2,1,0.4,1.5,0.5c0.6,0.2,0.9,0.5,1,0.9
		c0.3,1.1,0.7,1.9,1.3,2.4c0.6,0.5,1.3,0.9,2.1,1.2c0.8,0.3,1.6,0.4,2.5,0.5c0.9,0,1.8,0.1,2.7,0.1c0.6,0,1.2,0,1.9-0.1
		C72.1,80,72.7,80,73.4,80z M25.2,122.8c-0.1,0-0.2,0-0.2-0.1c0,0-0.1-0.1-0.2-0.1c0.3-0.5,0.5-0.8,0.6-0.8c0.1,0,0.4,0,0.9-0.1
		c-0.2,0.2-0.4,0.4-0.5,0.7C25.5,122.7,25.4,122.8,25.2,122.8z M26.4,121.6l-0.1,0.1h0.1V121.6z M35.4,109.6l-0.5-1.2
		c-0.4,0.3-0.7,0.4-0.7,0.5c0,0.2,0,0.4,0.1,0.6c0.1,0.2,0.2,0.5,0.3,0.9C34.7,110.1,35,109.9,35.4,109.6z M51.3,139.3l-0.9,0.7
		l-0.4-1.2c0.2-0.2,0.5-0.3,0.9-0.3C51,138.5,51.1,138.8,51.3,139.3z M52.8,58.4c-0.2-0.2-0.3-0.4-0.5-0.7c-0.1-0.3-0.3-0.4-0.5-0.4
		c-0.2,0-0.4,0.1-0.5,0.3c0.1,0.2,0.2,0.4,0.2,0.6c0,0.2,0.2,0.3,0.5,0.3c0.1,0,0.2,0,0.3-0.1C52.4,58.4,52.6,58.4,52.8,58.4z
		 M57,72.9h0.8c0.3,0,0.4,0.2,0.5,0.6c0,0.4,0.1,0.7,0.2,0.9c-0.4-0.1-0.8-0.2-1.1-0.4S57,73.5,57,72.9z M57.6,84.5
		c-0.1,0-0.1,0-0.1,0.1c0,0,0,0.1-0.1,0.1l-0.1,0.1c0.1,1,0.4,1.6,0.9,1.9c0.5,0.3,1.2,0.5,2,0.7C60.1,85.7,59.3,84.7,57.6,84.5z
		 M57.8,138.8c-0.4,0-0.5-0.1-0.4-0.3c0.1-0.1,0.2-0.1,0.4-0.1V138.8z M58.6,74.4h-0.1v0.1L58.6,74.4z M62,49.7l-0.5-0.4l-0.7,1.5
		L62,49.7z M66,49.5c-0.2-0.5-0.3-0.9-0.3-1.1l-0.8,0.4c0,0.4,0.1,0.7,0.4,0.7C65.6,49.5,65.8,49.5,66,49.5z M65.7,128.7
		c-0.4,0.4-0.5,0.6-0.5,0.8L65.7,128.7z M67,86.1h-0.4c0.4,0.3,0.9,0.5,1.3,0.8c0.4,0.3,1,0.4,1.7,0.4c0.2-0.2,0.3-0.5,0.3-0.9
		c0-0.2-0.1-0.3-0.4-0.5c-0.3-0.1-0.5-0.2-0.8-0.2c-0.2,0-0.4,0-0.7,0.1C67.6,86,67.3,86.1,67,86.1z M72.8,126.3l1.2,1.3
		c0.1-0.2,0.2-0.3,0.3-0.5c0.1-0.1,0.2-0.2,0.2-0.3c-0.1-0.4-0.2-0.6-0.4-0.9c-0.2-0.2-0.4-0.5-0.5-0.7L72.8,126.3z M74.9,57.7
		c-0.1,0.1-0.2,0.1-0.4,0.1l0.4-0.4V57.7z M80.5,94.5c-0.4-0.2-0.6-0.3-0.8-0.3c0,0.2,0,0.3-0.1,0.5c-0.1,0.1-0.1,0.3-0.1,0.5
		l0.5,0.1L80.5,94.5z M86.9,100.3c-0.9,0.9-1.3,1.8-1.3,2.7c0,0.4,0.2,0.9,0.7,1.3c0.4,0.4,1,0.8,1.5,1.1c0.6,0.3,1.4,0.7,2.3,1.1
		c0.9,0,1.8-0.5,2.7-1.5c0.9-1,1.3-1.6,1.3-1.9c0-0.6-0.2-1.3-0.5-2c-0.3-0.7-0.6-1.3-1-1.7c-0.9,0.9-1.4,1.6-1.4,2.1
		c0,0.5-0.4,0.7-1.1,0.7c-0.4,0-0.9-0.2-1.5-0.6S87.5,100.7,86.9,100.3z M86.4,64.5L86.1,64c0,0.1,0.1,0.2,0.3,0.4V64.5z M87.3,94.4
		c-0.1,0.2-0.2,0.4-0.3,0.5c-0.1,0.2-0.1,0.4-0.1,0.5l0.4,1.1c0.1-0.2,0.2-0.4,0.3-0.6c0.1-0.2,0.1-0.4,0.1-0.6c0-0.2,0-0.3-0.1-0.5
		C87.5,94.7,87.4,94.6,87.3,94.4z M87,111.7l0.8,1.3c0.2-0.2,0.4-0.3,0.5-0.4c0.2-0.1,0.3-0.2,0.3-0.4c-0.2-0.7-0.4-1.3-0.7-1.9
		L87,111.7z M91.4,93.2c0-0.3-0.1-0.4-0.3-0.5c-0.1,0-0.2,0-0.2,0.1c0,0-0.1,0.1-0.2,0.1c0,0.4,0.1,0.5,0.3,0.5c0.1,0,0.1,0,0.1-0.1
		S91.3,93.2,91.4,93.2z M92.8,120.4c-0.5,0.4-0.8,0.9-0.8,1.3c0,0.4,0.2,0.7,0.5,0.9C92.5,122.1,92.6,121.3,92.8,120.4z M94.4,59.1
		c-0.4-0.5-0.7-1-0.8-1.3c0.4-0.2,0.8-0.3,1.2-0.3c0.3,0,0.5,0.1,0.6,0.3c0.1,0.2,0.3,0.4,0.5,0.5L94.4,59.1z"/>
	<path id="XMLID_35_" class="st0" d="M136.5,128.9c-0.2,1.4-0.8,2.3-1.9,2.5c-0.9,0.2-1.8,0.3-2.7,0.4c-0.9,0.1-1.8,0.1-2.8,0.1
		c-0.2,0-0.3-0.2-0.5-0.6c-0.1-0.4-0.3-0.7-0.5-0.9c-0.2-0.2-0.4-0.4-0.7-0.6c-0.3-0.2-0.5-0.2-0.7-0.1c-1.1,0.7-1.7,0.8-2,0.2
		c-0.3-0.6-0.4-1.4-0.4-2.3c0-0.4,0-0.9,0.1-1.4c0-0.5,0-1-0.1-1.4c-0.2-1.4-0.9-1.6-2.3-0.5c-1.6,1.2-2.8,1.2-3.5,0
		c-0.2-0.3-0.3-0.6-0.5-1.1c-0.1-0.4-0.3-0.8-0.5-1.1c-0.2-0.3-0.4-0.6-0.7-0.7c-0.3-0.2-0.7-0.1-1.3,0.1c-0.1,0-0.2-0.2-0.3-0.5
		c-0.1-0.4-0.2-0.6-0.1-0.8c0.1-1.2,0.1-2.3-0.1-3.1c-0.1-0.8-0.8-1.4-2.1-1.8c-0.9-0.2-1.4-0.9-1.7-2.1c-0.2-1.2-0.4-2.3-0.5-3.4
		c-0.2-2.3-0.3-4.6-0.5-6.9c-0.1-2.3-0.3-4.6-0.5-6.9c-0.1-2.3,0-4.6,0.3-6.9c0.3-2.3,1-4.4,2.1-6.5c0.8-1.5,1.2-3,1.3-4.3
		c0.1-1.4,0-2.8-0.1-4.2c-0.1-1-0.1-1.8,0.1-2.5c0.1-0.7,0.7-1.2,1.7-1.7c0.8-0.4,1.2-1,1.3-1.9c0-0.9,0.2-1.8,0.3-2.6
		c0.2-0.5,0.4-0.9,0.7-1.2c0.3-0.3,0.6-0.3,1.1-0.1c1,0.4,1.6,0.4,1.8-0.1c0.2-0.5,0.4-1.2,0.5-2.1c0-0.4,0-0.8-0.1-1.1
		c0-0.3-0.1-0.7-0.1-1.1c0.1-0.2,0.2-0.4,0.3-0.7c0.1-0.3,0.3-0.5,0.5-0.6c0.3-0.2,0.7-0.1,1.2,0.3c0.2,0.1,0.3,0.2,0.3,0.3
		c0,0.1,0.1,0.2,0.3,0.3c0.4,0.3,0.8,0.5,1.5,0.7c0-0.3,0-0.6,0-0.9c0-0.4,0-0.6-0.1-0.8c-0.6-1.2-0.9-2.2-0.9-3
		c0-0.8,0.5-1.5,1.4-2.3c0.5-0.5,1.1-1,1.8-1.3c0.7-0.3,1.3-0.6,1.9-1l0.1,0.3l-0.1-0.3c0.1-0.7,0.1-1.4,0.1-1.9c0-0.6,0-1.2,0-1.9
		c0.2-1,0.5-1.6,0.9-1.7c0.4-0.2,0.9-0.2,1.5-0.1c0.4,0.3,0.7,0.5,0.9,0.8c0.3,0.3,0.5,0.5,0.8,0.8c0.2-0.3,0.3-0.5,0.5-0.7
		c0.1-0.2,0.2-0.4,0.1-0.6c-0.3-0.7-0.6-1-1-0.7c-0.4,0.2-0.8,0.4-1.3,0.6c0.4-2.4,0.8-3.8,1.4-4.3c0.6-0.4,1.7-0.2,3.3,0.8
		c0.9,0.7,1.5,0.5,1.9-0.7c0.4-0.8,0.7-1.5,1.1-2c0.4-0.5,1-0.9,1.7-1.1c0.4-0.1,0.7-0.2,1-0.3c0.3-0.1,0.6-0.3,0.7-0.6
		c0.4-1,0.9-1.9,1.4-2.8c0.5-0.9,1.4-1.3,2.6-1.3c0.9,0.1,1.8-0.1,2.7-0.5c0.9-0.4,1.8-0.8,2.7-1.3c1-0.4,1.9-0.6,2.7-0.5
		c0.8,0.1,1.7,0.2,2.6,0.3c3,0.1,5.5,1,7.3,2.8c1.9,1.8,3.6,4,5.1,6.7l0.1,0.1c-0.3,0.4-0.5,0.9-0.8,1.5c-0.3,0.5-0.5,1-0.7,1.5
		c-0.1,0.3-0.1,0.6,0.1,0.9c0.1,0.3,0.3,0.6,0.5,0.9c0.6-0.2,1-0.4,1.1-0.7c0.3-0.6,0.5-1.2,0.7-1.9c0.2-0.6,0.4-1.2,0.7-1.9
		c0.2-0.2,0.3-0.3,0.3-0.4c0-0.1,0.2-0.2,0.3-0.3c0.4-0.6,0.7-1.1,1.1-1.5c0.4-0.4,0.9-0.5,1.6-0.2c0.6,0.3,1.3,0.4,2.1,0.4
		c1-0.2,1.5-0.2,1.7,0c0.1,0.2,0,0.8-0.5,2c-0.6,1.5-0.8,2.6-0.7,3.4c0.2,0.8,0.8,1.6,1.9,2.5c1,0.7,1.5,1.2,1.5,1.5
		c0,0.3-0.5,1-1.5,2.1c-0.1,0.2-0.2,0.3-0.3,0.4c-0.1,0.1-0.2,0.2-0.3,0.4c-0.4,0.4-0.6,0.8-0.6,1.2c0,0.4,0.2,0.6,0.9,0.8
		c1.7,0.2,2,1.1,0.8,2.7c-0.6,0.7-0.9,1.4-0.8,2c0.1,0.6,0.3,1.3,0.5,2c0.2,0.4,0.3,1,0.5,1.7c0.1,0.7,0.1,1.3-0.2,1.7
		c-0.6,1.2-1,2.4-1,3.6c0,1.2-0.2,2.4-0.3,3.6c-0.1,1.6-0.4,3.1-0.9,4.5c-0.5,1.4-1.4,2.6-2.6,3.6c-0.9,0.7-1.4,1.4-1.5,2.2
		c-0.1,0.8,0,1.6,0.3,2.6c0.3,0.9,0.4,1.9,0.4,2.9c0,1.1,0.4,1.8,1.3,2.3c0.1,0.1,0.2,0.2,0.3,0.5c0.1,0.2,0.1,0.4,0,0.5
		c-0.4,0.7-0.7,1.4-0.8,2.2c-0.1,0.8-0.2,1.5-0.2,2.3c0,0.8-0.2,1.6-0.4,2.3c-0.2,0.8-0.6,1.4-1.3,2.1c-1.4,1.4-2.4,3-2.9,4.9
		c-0.5,1.8-0.7,3.6-0.4,5.4c0.3,2,0.1,3.6-0.6,4.9c-0.7,1.3-1.3,2.7-1.9,4.1c-0.1,0.2-0.3,0.3-0.5,0.5s-0.5,0.2-0.7,0.1
		c-0.5-0.4-1-0.5-1.4-0.3c-0.4,0.1-0.8,0.4-1.1,0.7c-0.3,0.4-0.6,0.8-0.9,1.2c-0.3,0.4-0.6,0.7-1,0.8c-0.1,0.1-0.2,0.4-0.2,0.9
		c0,0.5,0,0.9,0.1,1.3c0.2,0.8,0.2,1.5-0.1,2.1c-0.2,0.6-0.7,1-1.5,1.4c-0.4,0.1-0.8,0.3-1.1,0.6c-0.3,0.3-0.6,0.6-1,0.7
		c-0.2,0.1-0.4,0.1-0.7,0.1c-0.3,0-0.5-0.1-0.6-0.3c-0.4-1.2-0.6-1.8-0.8-1.9c-0.2-0.1-0.3,0-0.5,0.3c-0.1,0.3-0.2,0.7-0.3,1.3
		c-0.1,0.5-0.2,0.9-0.3,1.2c-0.2,0.4-0.3,0.9-0.4,1.4c-0.1,0.5-0.3,0.9-0.5,1.3c-0.4,0.4-0.7,0.8-1.1,1.1c-0.4,0.3-0.8,0.6-1.3,0.9
		c-0.2-0.4-0.4-0.9-0.5-1.3c-0.2-0.4-0.4-0.9-0.5-1.3c-0.1-0.4-0.1-1-0.1-1.5c0-0.6,0-1.1-0.1-1.7c-0.1-0.2-0.2-0.4-0.4-0.6
		c-0.2-0.2-0.4-0.3-0.5-0.2c-0.2,0.1-0.4,0.3-0.5,0.5c-0.2,0.3-0.3,0.5-0.3,0.7c-0.2,0.4-0.2,0.7-0.2,1.1c0,0.4,0.1,0.7,0.1,1.1
		c0.3,1.6,0.3,2.7,0.1,3.2c-0.2,0.5-0.9,0.9-2.1,1.1c-0.8,0.2-1.5,0.4-2.1,0.5c-0.6,0.2-1.2,0.8-1.9,1.7c-0.2,0.4-0.6,0.6-1.1,0.6
		c-0.6,0-1.1,0.1-1.5,0.1c-0.4-0.1-0.8-0.2-1.2-0.4c-0.4-0.2-0.8-0.4-1.2-0.5c-1.1-0.3-1.7-0.6-1.8-0.9c-0.1-0.3,0.1-1,0.7-2.2
		C136.7,131.3,136.9,130.1,136.5,128.9c0-0.3-0.1-0.5-0.3-0.7c0.1,0.2,0.1,0.3,0.1,0.3C136.4,128.7,136.4,128.8,136.5,128.9z
		 M116.9,108.5v0.5c0,0.2,0.1,0.3,0.3,0.3C117,109,116.9,108.7,116.9,108.5c-0.1-0.2-0.2-0.3-0.2-0.3c0,0-0.1-0.2-0.2-0.3
		C116.6,108,116.7,108.2,116.9,108.5z M172.8,71.1c-1.2-0.4-2.2-0.9-2.8-1.4c-0.6-0.5-1-1-1.3-1.7c-0.2-0.6-0.3-1.4-0.2-2.3
		c0.1-0.9,0.2-2,0.4-3.2l0.4-1.6c0.2-1,0.3-1.9,0.5-2.7c0.1-0.8-0.5-1.2-1.8-1.1c-0.2,0-0.4-0.2-0.5-0.6c-0.2-0.4-0.3-0.7-0.3-1
		c0.2-1.2,0-2.2-0.4-2.9c-0.4-0.7-1-1.3-1.7-1.9l-6.9-6.9c-0.7-0.7-1.4-1.3-2-1.8c-0.6-0.5-1.5-0.2-2.5,1c-0.6,0.6-1.4,0.8-2.3,0.7
		c-1.2-0.3-2.3,0.3-3.2,1.6c-0.7,0.9-1.6,1.5-2.5,1.7c-1.7,0.4-3.3,1.6-4.9,3.3c-1.6,1.7-3.3,3.2-5.1,4.5c-1.8,1.3-3.4,3-4.8,5
		c-1.4,0.4-2.5,1.3-3.2,2.7c-0.7,1.3-1.5,2.6-2.4,3.7c-0.4,0.4-0.8,1-1,1.7c-0.2,0.7-0.5,1.3-0.9,1.8c-0.2,0.4-0.4,0.9-0.7,1.4
		c-0.3,0.5-0.6,0.7-0.9,0.7c-1.2,0.2-1.9,0.6-2,1.3c-0.1,0.7,0,1.6,0.1,2.5c0.3,1.2-0.2,2.4-1.5,3.5c-1.2,0.9-1.6,2.2-1.3,3.9
		c0.2,1,0.3,1.9,0.3,2.7c0,0.8,0.1,1.8,0.2,2.7c0,0.5,0,1.1,0,1.7c0,0.6-0.1,1.1-0.3,1.5c-0.3,0.7-0.3,1.3-0.1,1.7
		c0.2,0.4,0.3,0.9,0.4,1.4c0.1,1,0,1.9-0.1,2.9c-0.2,0.9-0.2,1.9-0.1,2.9c0,0.5,0.2,0.9,0.5,1.1c0.4,0.2,0.7,0.4,1.1,0.7
		c0.4,0.2,0.7,0.5,0.9,0.8c0.3,0.3,0.4,0.8,0.4,1.5c0,0.5,0.2,1,0.5,1.5c0.4,0.5,0.7,1,1.1,1.4c0.7,0.7,1.4,1.4,2.2,2.1
		c0.8,0.7,1.5,1.4,2.2,2.1c0.4,0.4,0.9,0.7,1.3,1.1c0.4,0.4,0.7,0.9,0.9,1.4c0.4,1.6,0.9,2.6,1.7,2.9c0.8,0.3,1.8,0.2,3.1-0.5
		c1.4-0.5,2.4-0.1,3.1,1.3c0.4,0.9,1,1.4,1.5,1.4c0.6,0,1.2-0.1,1.9-0.3c0.5-0.2,1.1-0.4,1.7-0.5c0.6-0.2,1.1-0.4,1.5-0.5
		c0.6-0.2,1.2-0.3,1.7-0.3c0.5,0,0.9,0.3,1.3,0.8c0.4,0.7,0.8,1,1.2,0.8c0.4-0.2,0.8-0.5,1.3-0.9c0.4-0.3,0.8-0.4,1.4-0.5
		c0.6-0.1,1,0,1.3,0.3c1,0.7,1.6,0.8,2,0.3c0.4-0.5,0.7-1.2,1.1-2.1c1.1-3.1,2.4-5.9,4.1-8.4c1.6-2.5,3.5-4.9,5.5-7.2
		c0.2-0.6,0.4-1.2,0.5-1.9c0.2-0.6,0.4-1.2,0.5-1.9c0.2-0.7,0.4-1.4,0.5-1.9c0.2-0.6,0.3-1.2,0.4-1.8c0.2-1.2,0.3-2.5,0.3-3.7
		c0-1.2,0.2-2.4,0.3-3.7c0.2-1.6,0.5-3.2,0.9-4.8c0.4-1.6,0.8-3.2,1.1-4.7c0.1-0.3,0.2-0.5,0.4-0.8c0.2-0.3,0.4-0.4,0.5-0.4
		c1-0.2,1.6-0.7,2-1.7c0.4-0.9,0.8-1.8,1.5-2.5c0.1-0.1,0.3-0.2,0.7-0.4C173.3,70.6,173,70.8,172.8,71.1z M122.2,114.8
		c0-0.1,0-0.2-0.1-0.2c0,0-0.1-0.1-0.1-0.2c0,0.2,0,0.3-0.1,0.4c0,0.1-0.1,0.2-0.1,0.4c0.1-0.1,0.1-0.2,0.1-0.2
		C122.1,115,122.2,114.9,122.2,114.8z M127.3,122.5c-0.1-0.1-0.1-0.2-0.1-0.4c-0.1,0.1-0.1,0.2-0.1,0.3c0,0.1,0,0.2-0.1,0.3
		c0.1,0,0.2,0,0.2-0.1C127.2,122.6,127.2,122.5,127.3,122.5z M140.2,45.2l-0.5-0.8c-0.2,0.1-0.4,0.2-0.6,0.3
		c-0.2,0.1-0.4,0.3-0.6,0.5c0.1,0.1,0.2,0.2,0.2,0.3c0,0.1,0.1,0.2,0.2,0.2c0.2-0.1,0.4-0.2,0.6-0.3C139.7,45.4,140,45.3,140.2,45.2
		z M143,123.7c0.4-0.2,0.8-0.4,1.3-0.8c-0.2-0.2-0.3-0.3-0.4-0.5c-0.1-0.1-0.2-0.2-0.4-0.3c-0.2,0-0.4,0-0.5,0.1
		c-0.2,0.1-0.4,0.2-0.5,0.3C142.7,123.1,142.9,123.5,143,123.7z M172,36.7c0.2-0.6,0.3-1,0.4-1.1c0.9-0.4,1.6-0.6,2-0.7v0.1
		c0,0.1,0,0.2,0.1,0.2c0,0,0.1,0.1,0.1,0.2c0,0.2,0,0.3,0.1,0.4c-0.3,0.2-0.6,0.4-0.9,0.7c-0.3,0.3-0.6,0.5-1,0.7h-0.4
		C172.3,37,172.2,36.9,172,36.7z M179.2,79.5l-1.1,1.1c-0.2-0.2-0.3-0.4-0.5-0.5c-0.1-0.2-0.2-0.4-0.2-0.5c0-0.2,0.1-0.4,0.2-0.7
		c0.1-0.3,0.2-0.5,0.3-0.7c0.2,0.2,0.4,0.4,0.5,0.6C178.7,79,178.9,79.2,179.2,79.5z"/>
	<path id="XMLID_45_" class="st0" d="M208.4,55.2c0,0.4,0,0.9-0.1,1.3c0,0.4,0,0.8,0.1,1.3c0.1,1.1,0.2,1.9,0.2,2.5
		c0,0.6,0,1.2-0.3,1.6c-0.2,0.4-0.6,0.9-1.1,1.3c-0.5,0.4-1.3,1-2.3,1.6c-0.2-0.4-0.3-0.6-0.4-0.7c0.2,0.2,0.3,0.4,0.3,0.7
		c0,0.6,0,1.2,0,1.9c0,0.6,0,1.2,0.1,1.7c0.2,1.7,0.2,3.3-0.1,4.8c-0.2,1.5-1,3-2.5,4.5c-0.5,0.5-0.9,1.3-1.1,2.2
		c-0.2,0.9-0.5,1.8-0.7,2.7c-0.2,0.6-0.4,1.2-0.5,1.8c-0.2,0.6-0.4,1.1-0.5,1.7c-0.5,1.5-0.7,2.5-0.5,2.9c0.2,0.4,0.9,1,2.3,1.7
		c0.7,0.4,1.1,0.8,1.2,1.1c0.1,0.3-0.2,1-0.9,2.1c-0.4,0.7-0.6,1.3-0.6,1.9c0,0.5,0.1,1.1,0.2,1.6c0,0.5,0.1,0.8,0.3,0.9
		c0.2,0,0.5,0,0.9-0.2c0.8-0.2,1.4-0.1,1.7,0.3c0.4,0.4,0.4,1,0.3,1.7c-0.1,0.7-0.3,1.4-0.5,2.2c-0.3,0.8-0.6,1.5-0.9,2.2
		c-0.2,0.4-0.5,0.8-0.9,1c-0.4,0.2-0.7,0.5-1,0.9c-0.7,0.8-1.1,1.4-1.1,1.8c0,0.4,0.4,1,1.1,1.7c0.2,0.3,0.4,0.6,0.7,0.9
		c0.3,0.3,0.5,0.6,0.7,1c0.2,0.8,0.5,1.5,1,2c0.5,0.5,1,1,1.5,1.5c0.5,0.4,1.1,0.9,1.6,1.3c0.5,0.4,1,1,1.3,1.6
		c0.2,0.4,0.4,0.5,0.7,0.2c0.3-0.3,0.5-0.6,0.6-1c0.2-0.8,0.4-1.3,0.8-1.5c0.4-0.2,0.9-0.4,1.6-0.5c1.4-0.2,2.8-0.2,4-0.2
		c1.2,0,2.4,0.5,3.6,1.4c0.4,0.4,0.8,0.6,1.1,0.3c0.3-0.2,0.6-0.6,1-1.3c1-1.6,1.8-1.6,2.5-0.1c0.2,0.4,0.4,0.7,0.5,1.1
		c0.2,0.4,0.5,0.2,1.1-0.5c0.9-1.3,1.9-1.8,3.1-1.3c1.7,0.7,3.5,0.9,5.3,0.7c1.9-0.3,3.7-0.3,5.5,0c0.3,0.1,0.6,0.2,0.9,0.2
		c0.4,0,0.5,0.2,0.5,0.3c0,1.1,0.1,1.8,0.2,2.1c0.1,0.3,0.3,0.4,0.6,0.3c0.3-0.1,0.6-0.4,0.9-0.8c0.3-0.4,0.6-0.8,0.9-1.1
		c0.4-0.4,0.9-0.8,1.3-0.9c0.4-0.2,0.8,0,1.1,0.4c0.3,0.3,0.6,0.4,1,0.4c0.4,0,0.8,0,1.2,0.1c0.4,0,0.7,0.2,1,0.4
		c0.3,0.2,0.4,0.7,0.4,1.4h0.4c0.4,0,0.5,0,0.5-0.1c0.6-1,1.2-1.4,1.6-1.2c0.4,0.2,0.9,0.5,1.5,0.9c0.6,0.4,1.1,1,1.5,1.7
		c0.4,0.7,1.1,0.9,2.1,0.5c0.6,1.2,1.1,2.5,1.4,3.9c0.3,1.3,0.2,2.8-0.2,4.5c-0.4,1.5-1.1,2.8-1.9,3.7c-0.8,1-2,1.6-3.5,1.9
		c-0.4,0-0.8,0.2-1.3,0.5c-1.7,1.1-3,1.6-3.9,1.6c-0.9,0-2-0.6-3.5-1.9c-0.8-0.8-1.6-0.9-2.5-0.4c-1.2,0.5-2.4,0.9-3.5,1.1
		c-1.1,0.2-2.2-0.1-3.3-0.8c-1-0.7-2-0.6-3.1,0.4c-0.4,0.3-0.7,0.5-1.1,0.7c-0.4,0.2-0.7,0.1-1.1-0.3c-0.4-0.4-0.7-1-0.7-1.7
		s0.2-1.4,0.7-2.1c0.2-0.2,0.4-0.3,0.6-0.4c0.2-0.1,0.5-0.2,0.7-0.4c0.1,0.2,0.2,0.4,0.3,0.6c0.1,0.2,0.2,0.4,0.3,0.6
		c0.1-0.1,0.2-0.2,0.3-0.2c0.1,0,0.2-0.2,0.3-0.3c-0.2-0.2-0.4-0.3-0.6-0.3c-0.2,0-0.4-0.2-0.6-0.3c0.7-0.5,1.3-1.2,1.9-1.9
		c0-0.1,0-0.2,0.1-0.3c0-0.1,0.1-0.2,0.1-0.4v-0.4c-0.4-0.1-0.9-0.1-1.5-0.1c-0.5,0-1,0-1.5-0.1c-0.9-0.2-1.4-0.6-1.6-1.3
		c-0.2-0.7,0-1.4,0.7-2.2c0.2-0.3,0.4-0.5,0.7-0.7c0.3-0.2,0.6-0.5,0.7-0.7c0.2-0.2,0.3-0.3,0.3-0.4c0-0.1,0.2-0.2,0.3-0.4
		c-0.2-0.1-0.4-0.2-0.7-0.3c-0.3-0.1-0.5-0.1-0.7,0c-1.2,0.4-2.2,1.2-2.7,2.3c-0.6,1.1-0.7,2.3-0.3,3.7c0.2,0.4,0.4,0.7,0.6,1
		c0.2,0.3,0.4,0.6,0.6,1c0.4,1.4-0.3,2.3-2,2.5c-0.4,0-0.8,0-0.9,0.1c-1.5,0.4-2.6,0.3-3.2-0.2c-0.6-0.5-0.8-1.5-0.5-3.1
		c0.2-0.7,0.4-1.4,0.7-2.2c0.3-0.8,0.6-1.5,1-2.2c0.3-0.6,0.4-1.2,0.5-1.8c0.1-0.6-0.1-1.1-0.5-1.7c-0.2-0.4-0.4-0.5-0.7-0.5
		c-0.2,0-0.3,0.1-0.5,0.2c-0.1,0.1-0.2,0.2-0.3,0.3c-0.3,0.7-0.5,1.4-0.8,2.1c-0.3,0.7-0.5,1.4-0.7,2.1c-0.4,1.4-1.3,2.4-2.8,2.8
		c-0.8,0.3-1.3,0.1-1.5-0.4c-0.2-0.5-0.4-1-0.6-1.5c-0.1-0.4-0.3-0.8-0.7-1.3c-0.2-0.3-0.4-0.3-0.8-0.1c-0.3,0.3-0.4,0.6-0.4,0.9
		c0.1,0.5,0.2,1.1,0.2,1.7c0,0.6,0.1,1.2,0.2,1.8c0.1,1,0,1.6-0.3,1.9c-0.3,0.3-0.9,0.5-1.9,0.8c-1.2,0.3-2,0.3-2.3,0.2
		c-0.3-0.1-0.7-0.8-1.2-1.9c-0.2-0.3-0.3-0.6-0.4-0.9c-0.1-0.3-0.2-0.6-0.4-0.9c-0.2-0.3-0.3-0.6-0.5-1.1c-0.1-0.4-0.5-0.4-1,0.1
		c-0.2,0.2-0.3,0.5-0.4,1c-0.1,0.5-0.1,1-0.1,1.4c0.1,0.3,0.2,0.6,0.4,0.9c0.2,0.3,0.2,0.6,0.1,0.9c-0.2,0.6-0.6,1.1-1.2,1.5
		c-0.2,0.1-0.4,0.1-0.7-0.1c-0.3-0.1-0.5-0.2-0.7-0.3c-1.2-0.4-2.3-0.8-3.5-1.2c-1.2-0.4-2.4,0-3.7,1.2c-0.5-0.3-1.1-0.4-1.8-0.3
		c-0.7,0-1.3,0.1-2,0.1c-0.7,0-1.3-0.1-1.8-0.4c-0.5-0.3-0.9-0.8-1.2-1.7c-1.4-0.4-2.2-1.2-2.4-2.3c-0.2-1.1-0.2-2.4-0.1-3.8
		c0.2-1.2,0.2-2.3,0.2-3.3c0-1.1-0.3-2.1-0.7-3.2c-0.3-0.7-0.4-1.5-0.3-2.4c0.1-0.9,0.7-1.6,1.7-2.1c0.6-0.4,0.9-0.8,0.9-1.3
		c0-0.5-0.1-1-0.3-1.5c-0.7-1.5-1.2-3.1-1.3-4.7c-0.2-1.6,0.1-3.4,0.9-5.3c0.2-0.3,0.2-0.6,0.1-0.9c-0.1-0.4-0.2-0.7-0.1-1.1
		c0.1-1.2,0.2-2.5,0.3-3.9c0.1-1.3,0.2-2.7,0.3-4c0.2-1.4,0.3-2.8,0.3-4.1c0-1.3,0.2-2.7,0.3-4.1c0.1-0.4,0.1-0.8,0.1-1.1
		c0-0.3,0.1-0.6,0.3-1c0.7-1.8,1.1-3.6,1.1-5.4c0-1.8,0-3.6,0-5.4c0-1.9,0.1-3.8,0.3-5.7c0.2-2,0.4-3.9,0.5-5.7
		c0.2-1.1,0.4-2.1,0.6-3.1c0.2-1,0.4-2.1,0.6-3.1c0.4-0.4,0.9-0.7,1.4-1c0.5-0.3,1-0.7,1.4-1.1c1-1,1.7-1.5,2.1-1.7
		c0.4-0.1,0.9,0.3,1.5,1.4c0.4,0.8,0.8,1.2,1.2,1.3c0.4,0.1,0.9,0,1.3-0.1c0.4-0.2,0.9-0.4,1.4-0.6c0.5-0.2,1-0.3,1.4-0.2
		c0.6,0.2,1.1-0.1,1.3-0.9c0.3-0.8,0.5-1.5,0.7-2.3c0.2-0.7,0.4-1.4,0.5-2c0.2-0.6,0.4-1.3,0.5-2l0.3-0.4c0.8,0.9,1.4,1.6,1.7,2.3
		c0.4,0.6,0.6,1.3,0.7,1.9c0.1,0.7,0,1.4-0.3,2.2c-0.3,0.8-0.7,1.8-1.3,3.1c-0.2,0.2-0.3,0.4-0.5,0.6c-0.1,0.2-0.3,0.5-0.5,0.7
		c-0.6,1-0.9,1.6-0.8,1.8c0.1,0.2,0.7,0.6,1.9,1L208.4,55.2z M189.4,115.9c-0.2-0.1-0.4-0.2-0.5-0.3c-0.2-0.1-0.4-0.2-0.5-0.3
		c0.1,0,0,0.1-0.3,0.4l-0.3,0.3c0.2,0.3,0.4,0.6,0.8,0.9c0.1-0.1,0.2-0.2,0.3-0.3C189.1,116.5,189.3,116.2,189.4,115.9z M191.3,128
		c0.2-0.4,0.4-0.7,0.5-0.9c0.2-0.3,0.4-0.5,0.5-0.8c0-0.1-0.1-0.2-0.3-0.3c-0.2-0.1-0.4-0.2-0.5-0.3c-0.4,0.4-0.7,1-0.9,1.7
		L191.3,128z M192.2,50.9l-1.2-0.4c0.1-0.2,0.2-0.4,0.4-0.5c0.2,0.2,0.3,0.3,0.4,0.5C191.9,50.6,192.1,50.8,192.2,50.9z
		 M191.6,112.4l1.1-1.1c-0.2-0.4-0.4-0.5-0.5-0.5c-0.4,0.2-0.7,0.4-0.8,0.7L191.6,112.4z M193.4,41.3c0.4,0.5,0.8,1,1.1,1.4
		c0.3,0.4,0.6,0.8,0.9,1.1c-0.4,0.2-0.7,0.4-1,0.7c-0.3,0.3-0.6,0.4-1,0.4c-1.2,0.2-1.7-0.4-1.5-1.7c0.1-0.3,0.2-0.5,0.5-0.8
		C192.7,42.1,193,41.8,193.4,41.3z M193.4,104.5c-0.2-0.3-0.3-0.5-0.4-0.7c-0.1-0.2-0.2-0.4-0.3-0.6c-0.2,0.2-0.3,0.4-0.5,0.6
		c-0.1,0.2-0.2,0.4-0.2,0.6c-0.1,0.2-0.1,0.4,0.1,0.6c0.1,0.2,0.3,0.4,0.5,0.6C192.8,105.3,193.1,104.9,193.4,104.5z M194.5,86.2
		c0,0,0-0.1,0.1-0.2c-0.1,0-0.2,0-0.2-0.1c0,0-0.2-0.1-0.3-0.1v0.4l0.3,0.1C194.5,86.3,194.5,86.3,194.5,86.2z M194.9,119.1
		c1.3-0.9,2.4-1.7,3.2-2.5c0.2-0.2,0.3-0.4,0.4-0.7c0.1-0.3,0.2-0.6,0.3-0.9c-0.3,0-0.6,0-0.9-0.1c-0.3-0.1-0.6,0-0.7,0.1
		c-0.8,0.4-1.4,0.9-1.7,1.5c-0.4,0.7-0.6,1.4-0.8,2.2c0,0.2,0,0.3,0.1,0.3C194.8,119,194.8,119.1,194.9,119.1z M198.4,38.1
		c1,0,1.6,0.3,1.9,0.8c0.3,0.5,0.2,1.2-0.2,1.9c-0.4,0.7-0.9,1.4-1.6,2.1c-0.2,0.2-0.4,0.3-0.6,0.3c-0.2,0-0.4,0-0.6-0.2
		c-0.5-0.4-0.8-1-0.9-1.6c0-0.6,0.1-1.3,0.5-2c0.2-0.4,0.4-0.6,0.7-0.8C198,38.5,198.2,38.3,198.4,38.1z M198.4,99.3
		c-0.2-0.1-0.3-0.2-0.3-0.3c0-0.1-0.2-0.2-0.3-0.3c-0.1,0.2-0.2,0.3-0.3,0.4c-0.1,0.1-0.1,0.2-0.1,0.4c0,0.2,0.1,0.3,0.2,0.3
		c0.1,0,0.2,0.2,0.3,0.3c0.1-0.2,0.2-0.3,0.3-0.5C198.2,99.7,198.3,99.5,198.4,99.3z M198,127.3c0.4-0.4,0.8-0.8,0.9-1.1V126
		c-0.2,0.2-0.3,0.4-0.5,0.7C198.3,126.9,198.2,127.2,198,127.3z M200.6,43.9l0.4-0.1l-0.3,0.5L200.6,43.9z M202.5,86.8
		c-0.2-0.4-0.3-0.8-0.4-1c-0.1-0.2-0.1-0.5-0.1-0.7c0.1-0.2,0.2-0.4,0.4-0.6c0.2-0.2,0.4-0.3,0.5-0.3c0.2-0.1,0.4,0,0.5,0.1
		c0.2,0.2,0.3,0.4,0.3,0.5C203.7,85,203.3,85.7,202.5,86.8z M207,41.7c-0.3,0.1-0.6,0.2-0.9,0.3c-0.3,0.1-0.6,0.2-0.9,0.4
		c-1.2,0.6-1.9,0.4-2.3-0.7l-0.4-2c0-0.4,0.1-0.8,0.4-0.9c0.5-0.4,1-0.4,1.3-0.3c0.5,0.4,1,0.9,1.5,1.4c0.5,0.5,1,1,1.4,1.4
		L207,41.7z M208.4,64.4l-0.1,0.3l-0.1-0.3H208.4z M208.2,54.9V54c0.2-0.4,0.3-0.8,0.5-1c0.1-0.2,0.4-0.2,0.9,0.1
		c0.1,0.1,0.2,0.3,0.2,0.5c0,0.3,0,0.5-0.2,0.7c-0.1,0.2-0.3,0.3-0.5,0.5c-0.3,0.1-0.5,0.3-0.7,0.5L208.2,54.9z M216.2,131.1
		c0.2,0.5,0.4,1,0.5,1.3c0.2,0.4,0.2,0.7,0.1,0.9c0,0.2-0.1,0.4-0.4,0.7c-0.3,0.3-0.5,0.5-0.7,0.7c-0.2-0.3-0.4-0.5-0.5-0.8
		c-0.2-0.3-0.3-0.5-0.4-0.8c0-0.2,0.1-0.4,0.4-0.7C215.6,132,215.9,131.6,216.2,131.1z M252.8,129.7c0.8-1.1,0.8-2.1,0.1-3.1
		c-0.1-0.2-0.1-0.4-0.1-0.5c0-0.2,0-0.3-0.1-0.4c-0.5,0-0.9,0-1.2,0.1l-0.1,0.4c0.4,0.2,0.6,0.3,0.8,0.3c0.2,0.1,0.3,0.1,0.5,0.1
		c0.1,0,0.3-0.1,0.5-0.1c-0.1,0.5-0.1,1.1-0.1,1.6C252.9,128.7,252.9,129.2,252.8,129.7z"/>
	<path id="XMLID_65_" class="st0" d="M273.3,31.1c0.5-1,1-1.7,1.3-2.1c0.3-0.4,0.7-0.6,1.1-0.6c0.2,0,0.4,0.1,0.8,0.2
		c0.4,0.1,0.8,0.2,1.2,0.2c0.5,0,1.1-0.3,1.6-0.9c0.5-0.6,1.1-0.9,1.7-0.9c0.4,0,0.8,0.2,1.3,0.5c0.5,0.4,0.9,0.5,1.3,0.5
		c0.4,0,0.6-0.2,0.9-0.6c0.2-0.4,0.4-0.9,0.7-1.4c0.2-0.5,0.5-1,0.9-1.4c0.4-0.4,0.8-0.6,1.3-0.6c1,0,1.7,0.2,2.2,0.7
		c0.5,0.5,0.9,1,1.3,1.6c0.4,0.6,0.8,1.1,1.1,1.6c0.4,0.5,0.9,0.7,1.6,0.7c0.2,0,0.3,0,0.5-0.1c0.1,0,0.3-0.1,0.5-0.1
		c0.4,0,1,0.4,1.5,1.1c0.6,0.7,1.3,1.1,2.2,1.1c0.2,0,0.4,0,0.6-0.1c0.2-0.1,0.4-0.1,0.6-0.1c0.4,0,0.6,0.2,0.7,0.7
		c0,0.4-0.4,1-1.1,1.5c-0.8,0.6-1.2,1.3-1.4,2.1c1.4-0.4,2.7-0.9,3.9-1.3c1.2-0.4,2.4-0.7,3.7-0.7c1.2,0.1,1.9,0.5,1.9,1.3
		c0,0.3-0.1,0.6-0.2,1.1c-0.1,0.5-0.2,0.9-0.2,1.3c0,0.9,0.4,1.3,1.3,1.3c0.4,0,1-0.4,1.6-1.1c0.6-0.7,1.3-1.1,2-1.1
		c1.2,0,2.7,0.5,4.5,1.5c1.7,1,3.1,2,4.1,2.9c0.6,0.6,1.1,1.4,1.4,2.3c0.3,0.9,1,1.4,2.2,1.4c0.2,0,0.4,0,0.7-0.1
		c0.3-0.1,0.5-0.1,0.8-0.1c0.4,0,0.6,0.2,0.7,0.5c0.1,0.3,0.2,0.6,0.3,0.9c0.1,0.3,0.3,0.6,0.5,0.9c0.2,0.3,0.6,0.5,1.1,0.5
		c0.3,0,0.6,0,0.9-0.1c0.4-0.1,0.7-0.1,1.1-0.1c1,0,1.5,0.6,1.5,1.9c0,0.3,0,0.5-0.1,0.8c-0.1,0.3-0.1,0.5-0.1,0.8
		c0,0.7,0.4,1.1,1.3,1.1c0.4,0,0.9-0.4,1.4-1.1c0.5-0.8,1-1.1,1.7-1.1c0.1,0,0.4,0.1,0.9,0.4c0.5,0.3,1.1,0.6,1.7,1
		c0.6,0.4,1.1,0.8,1.5,1.2c0.4,0.4,0.7,0.7,0.7,1c0,0.2,0,0.4-0.1,0.5c0,0.2-0.1,0.4-0.1,0.5c0,0.7,0.4,1.1,1.1,1.3
		c0.7,0.1,1.1,0.5,1.2,1.1c0.1,0.8,0.2,1.8,0.3,2.9c0.1,1.1,0.6,1.7,1.5,1.7c0.4,0,0.8-0.1,1.4-0.4c0.6-0.3,1.1-0.4,1.5-0.4
		c0.4,0,0.8,0.5,1.3,1.6c0.5,1.1,1,2.2,1.5,3.5c0.5,1.3,0.9,2.5,1.2,3.5c0.3,1.1,0.5,1.6,0.5,1.5c0,0.2,0,0.4,0.1,0.5
		c0,0.2,0.1,0.4,0.1,0.5c0,0.4-0.2,0.8-0.7,1.2c-0.4,0.4-0.9,0.7-1.4,1c-0.5,0.3-1,0.6-1.4,0.9c-0.4,0.3-0.7,0.5-0.7,0.8
		c0,0.3,0.2,0.7,0.5,1.2c0.3,0.5,0.6,0.8,1,0.8c0.4,0,0.9-0.2,1.5-0.7c0.5-0.5,1.1-0.7,1.6-0.7c0.9,0,1.3,0.4,1.3,1.2
		c-0.1,0.4-0.2,0.8-0.4,1.5c-0.2,0.6-0.4,1.2-0.5,1.9c-0.2,0.6-0.4,1.2-0.7,1.6c-0.3,0.4-0.5,0.7-0.8,0.7c-0.9,0.3-1.3,0.7-1.3,1.3
		c0,0.7,0.2,1.4,0.5,2.1c0.3,0.7,0.5,1.3,0.5,1.9c0,0.6-0.4,1.3-1.1,2.1c-0.7,0.8-1.5,1.5-2.5,2.2c-0.9,0.7-1.9,1.4-2.9,2.1
		c-1,0.7-1.7,1.2-2.1,1.5c-0.6,0.5-1.1,1.1-1.5,1.8c-0.4,0.7-0.7,1.3-0.9,1.8c-0.3,0.5-0.5,1-0.8,1.3c-0.3,0.4-0.7,0.5-1.2,0.5
		c-0.5,0-1-0.2-1.5-0.5c-0.4-0.3-0.9-0.5-1.5-0.5h-0.5c0,0.5,0,0.9,0.1,1.1c0.1,0.2,0.2,0.4,0.3,0.5c0.1,0.2,0.2,0.4,0.3,0.6
		c0.1,0.2,0.1,0.6,0.1,1.1c0,1.1-0.4,1.6-1.1,1.6c-0.3,0-0.5,0-0.7-0.1c-0.2-0.1-0.5-0.1-0.7-0.1c-0.9,0-1.6,0.3-2.1,0.9
		c-0.5,0.6-1,1.2-1.5,1.9c-0.4,0.7-0.9,1.3-1.4,1.9c-0.5,0.6-1.1,0.9-1.8,0.9c-0.4,0-0.7,0-1-0.1c-0.3-0.1-0.6-0.1-1-0.1
		c-0.9,0-1.6,0.3-2.3,0.9c-0.6,0.6-1.2,1.4-1.8,2.2c-0.6,0.8-1.2,1.7-1.9,2.5c-0.7,0.8-1.6,1.3-2.7,1.6c-0.9,0.4-1.6,0.8-2,1.2
		c-0.9,0.8-2,1.4-3.4,1.7c-1.4,0.4-2.5,0.5-3.4,0.5c-0.2,0-0.4,0-0.6-0.1c-0.2,0-0.4-0.1-0.6-0.1c-0.5,0-1.3,0.3-2.4,0.9
		c-1.1,0.6-2.2,1.2-3.3,1.9c-1.2,0.7-2.2,1.4-3.1,1.9c-0.9,0.6-1.4,0.9-1.5,1c0-0.6,0-1.2-0.1-1.6c-0.1-0.4-0.1-0.9-0.1-1.5
		c-0.7,0.7-1.2,1.2-1.3,1.5c-0.2,0.3-0.5,0.5-0.9,0.5c-0.2,0-0.4-0.1-0.7-0.2c-0.3-0.1-0.5-0.2-0.7-0.2c-0.7,0-1.4,0.3-2,0.8
		c-0.6,0.5-1.4,0.8-2.4,0.8c-1,0-1.6-0.1-1.9-0.3c-0.3-0.2-0.4-0.4-0.5-0.7c0-0.2-0.1-0.4-0.3-0.7c-0.1-0.2-0.5-0.3-1.1-0.3
		c-0.2,0-0.4,0-0.7,0.1c-0.3,0.1-0.4,0.3-0.4,0.7c0,0.4,0.2,0.6,0.5,0.9c0.3,0.2,0.6,0.3,0.7,0.3c0.3,0,0.5,0,0.7-0.1
		c0.2,0,0.5-0.1,0.7-0.1c0,1-0.3,1.8-0.8,2.6c-0.5,0.8-1.2,1.5-2.1,2.1c-0.8,0.7-1.8,1.3-2.9,1.9c-1.1,0.6-2.1,1.2-3.1,1.9
		c-0.5,0.2-0.9,0.3-1.2,0.3c-0.3,0-0.5-0.1-0.7-0.2c-0.2-0.1-0.4-0.2-0.5-0.2c-0.3,0-0.6,0.4-1.1,1.1c-0.4,0.8-0.8,1.1-1.1,1.1
		c-1.2-0.9-2.2-1.6-3-2.3c-0.8-0.6-1.4-1.2-2.1-1.7c-0.6-0.5-0.9-0.8-0.9-1c-0.1-0.3-0.1-0.7-0.1-1.2v-1.6c0-0.9-0.2-1.6-0.7-2.2
		c-0.5-0.6-0.7-1.3-0.7-2.1c0-1.5,0.2-3,0.6-4.5s0.6-3,0.6-4.5v-3.9c0-1.9,0.2-3.8,0.7-5.7c0.4-1.9,0.7-3.8,0.7-5.7
		c0-0.9-0.1-1.8-0.4-2.6c-0.3-0.8-0.4-1.8-0.4-2.7c0-1.2,0.2-2.3,0.5-3.4c0.4-1.1,0.5-2.2,0.5-3.3c0-0.7,0-1.4-0.1-1.9
		c-0.1-0.6-0.1-1.2-0.1-1.9c0-0.9,0.1-1.5,0.3-1.9c0.2-0.4,0.5-0.7,0.7-0.9c0.3-0.2,0.5-0.3,0.7-0.4c0.2-0.1,0.3-0.3,0.3-0.7
		c0-0.4-0.1-1.1-0.4-2.1c-0.3-0.9-0.4-1.9-0.4-2.9c0-1.5,0.2-3,0.5-4.5c0.3-1.5,0.6-2.9,0.7-4.3c0.2-1.8,0.4-3.6,0.7-5.3
		s0.7-3.5,1.2-5.2c0.4-1.5,1-3.3,1.8-5.3c0.8-2,1.1-4,1.1-6c0-1.2-0.1-2.1-0.3-2.5c-0.2-0.4-0.5-0.6-0.9-0.6c-0.3,0-0.6,0-1.1,0.1
		c-0.5,0.1-1,0.1-1.5,0.1c-0.7,0-1.5-0.1-2.3-0.3c-0.8-0.2-1.3-0.6-1.3-1.2c0-0.4,0.2-0.7,0.7-0.9c0.4-0.3,0.9-0.6,1.5-0.9
		c0.5-0.4,1-0.8,1.5-1.3c0.4-0.5,0.7-1.3,0.7-2.3C270.2,33,271.3,31.7,273.3,31.1c0,0.2,0,0.3-0.1,0.4c0,0.1-0.1,0.2-0.1,0.4
		c0,0.6,0.2,1.2,0.7,1.9c0.2-0.1,0.3-0.3,0.3-0.7c0-0.4,0.1-0.6,0.1-0.8c0-0.4-0.1-0.7-0.2-0.8C273.9,31.4,273.7,31.3,273.3,31.1z
		 M272.9,62.5c-0.1,0.1-0.1,0.2-0.1,0.2c0,0,0,0.1-0.1,0.2h0.4c0-0.1,0-0.2-0.1-0.2C272.9,62.7,272.9,62.6,272.9,62.5z M273.8,97.7
		c-0.5,0.4-0.9,0.6-1.1,0.8c0.1,0,0.2,0.1,0.4,0.3c0.1-0.2,0.2-0.4,0.3-0.5c0.1-0.2,0.2-0.4,0.3-0.5H273.8z M275,71.5l-0.7,0.4
		c0,0.3,0.1,0.5,0.3,0.7c0.4,0,0.7-0.1,0.7-0.3C275.3,72.1,275.2,71.8,275,71.5z M276.5,40.3l0.3-0.1l-0.4,0.3L276.5,40.3z
		 M279,77.6c-0.5-0.5-0.8-0.8-0.9-0.8c-0.6,0.2-0.9,0.5-0.9,1.1c0,0.4,0.2,0.7,0.7,0.7c0.2,0,0.4-0.1,0.5-0.3
		C278.5,78,278.8,77.8,279,77.6z M277.6,87.6c0,0.2,0,0.3-0.1,0.4c0,0.1-0.1,0.2-0.1,0.3l0.3-0.3c0-0.1,0-0.2-0.1-0.2
		C277.6,87.8,277.6,87.7,277.6,87.6z M299.6,46.8c-1.8-0.7-2.7-1.9-2.7-3.5c0-0.2,0-0.4,0.1-0.6c0-0.2,0.1-0.4,0.1-0.6
		c0-0.2,0-0.3-0.1-0.5c-0.1-0.1-0.2-0.3-0.3-0.5c-0.4,0.4-0.8,0.9-1.2,1.4c-0.4,0.5-0.7,1-1.1,1.4c-0.7-0.2-1.4-0.4-2.1-0.7
		c-0.7-0.3-1.4-0.6-2.1-1.1c-0.1,0.2-0.2,0.4-0.3,0.7c-0.1,0.3-0.1,0.5-0.1,0.8c0,0.4,0.1,0.7,0.3,1c0.2,0.3,0.3,0.7,0.3,1.1
		c0,0.9-0.3,2-0.8,3.4c-0.5,1.4-1,2.1-1.5,2.1c-0.4,0-0.8-0.2-1.3-0.5c-0.5-0.3-1-0.5-1.4-0.5c-0.8,0-1.2,0.9-1.2,2.7
		c0,0.9,0.2,1.5,0.5,1.9c0.9,0.7,1.5,1.8,1.8,3.4c0.3,1.6,0.5,2.8,0.5,3.7c0,1-0.3,2-0.9,2.9c-0.6,1-0.9,2-0.9,2.9
		c0,0.4,0,0.6,0.1,0.8c0,0.2-0.1,0.3-0.2,0.5c-0.1,0.1-0.2,0.2-0.3,0.3c-1.2,0.4-1.9,1.3-2.1,2.5c-0.1,1.2-0.2,2.1-0.2,2.7
		c0.5-0.4,1-0.7,1.4-0.9c0.4-0.1,1-0.2,1.7-0.2c0,1-0.4,2-1.3,2.9c-0.9,1-1.3,2-1.3,3.1c0,0.5,0.1,1.1,0.3,1.7
		c0.2,0.6,0.3,1.1,0.3,1.7c0,1-0.2,1.9-0.5,2.8c-0.4,0.9-0.5,1.8-0.5,2.8c0,0.7,0.1,1.4,0.3,1.9c0.2,0.6,0.3,1.2,0.3,1.9
		c0,0.7-0.3,1.4-0.9,1.9c-0.6,0.6-0.9,1.1-0.9,1.5c0,0.4,0,1,0.1,1.7c0,0.7,0.2,1.4,0.3,2.1l-0.3,0.1l0.1-0.3c0.4,0.4,0.7,0.8,1.1,1
		c0.4,0.2,0.5,0.5,0.5,0.7c0,1.5-0.4,2.6-1.2,3.1c-0.8,0.6-1.8,1.1-3.1,1.7c0.4,0.4,0.8,0.8,1.4,1.2c0.6,0.4,0.9,0.8,0.9,1.3
		c0,0.4-0.2,0.9-0.7,1.3c-0.4,0.4-0.7,1-0.7,1.7c0,0.2,0.2,0.4,0.5,0.5c0.4,0.2,0.8,0.4,1.3,0.6c0.5,0.2,1,0.4,1.5,0.6
		c0.5,0.2,0.9,0.3,1.1,0.4c0.4-0.4,0.8-0.7,1.3-0.8c0.5-0.1,1.1-0.2,1.6-0.2c0.5,0,1-0.2,1.5-0.3c0.5-0.2,0.9-0.6,1.1-1.3
		c1.4-0.7,2.9-1.2,4.4-1.5c1.5-0.3,2.9-0.9,4.1-2c0.5-0.3,1.1-0.4,1.7-0.4c1.2,0,2,0.8,2.1,2.5c-0.5-0.3-1-0.4-1.4-0.4
		c-0.4,0-0.9,0-1.4,0c0.2,0.4,0.3,1,0.5,1.5c0.1,0.6,0.4,0.9,0.9,0.9c0.2,0,0.4-0.3,0.7-0.9c0.3-0.6,0.6-1.3,1.1-2.1
		c0.4-0.8,1-1.4,1.5-2.1c0.6-0.6,1.2-0.9,1.9-0.9c0.2,0,0.4,0,0.5,0.1c0.2,0,0.4,0.1,0.5,0.1c0.9,0,1.9-0.1,3.1-0.3
		c1.2-0.2,2.3-0.4,3.4-0.7c1.1-0.3,2-0.8,2.9-1.3c0.8-0.6,1.4-1.3,1.5-2.1c0.1-0.5,0.2-1.1,0.2-1.8c0-0.7,0.5-1.1,1.3-1.3
		c0.4,0,0.6,0.2,0.9,0.5c0.2,0.3,0.4,0.6,0.6,0.9c0.2,0.3,0.4,0.6,0.6,0.9c0.2,0.3,0.5,0.5,0.7,0.5c0.4,0,0.7-0.4,0.7-1.1
		c0-0.4-0.1-0.6-0.3-0.9c-0.2-0.2-0.3-0.5-0.3-0.9c0-0.4,0.1-0.9,0.3-1.3c0.2-0.4,0.6-0.6,1.1-0.6s0.9,0.1,1.1,0.3
		c0.2,0.2,0.4,0.3,0.5,0.3c0.2,0,0.4-0.3,0.8-0.8c0.4-0.5,0.8-1.1,1.3-1.8c0.5-0.7,1.2-1.3,1.9-2c0.7-0.7,1.5-1.1,2.3-1.4
		c0.4,0.2,0.9,0.4,1.5,0.5c0.5,0.2,1.1,0.3,1.7,0.3c0.3,0,0.7-0.1,1.2-0.3c-0.7-0.2-1.4-0.3-2.2-0.3c-0.8,0-1.5-0.1-2.2-0.2
		c0.9-1.6,1.8-3.2,2.6-4.8c0.8-1.6,1.9-3.1,3.3-4.4l0.3-0.1l-0.3,0.1c-0.4-0.8-0.8-1.6-1.1-2.4c-0.3-0.8-0.5-1.6-0.5-2.5
		c0-0.4,0-0.7,0.1-1c0.1-0.3,0.1-0.6,0.1-1c0-0.5-0.2-0.9-0.5-1.1c-0.4-0.2-0.8-0.3-1.2-0.3c-0.4,0-0.8-0.2-1.2-0.3
		c-0.4-0.2-0.5-0.5-0.5-1.1c0.1-0.5,0.5-1.3,1.3-2.2c0.8-0.9,1.1-1.5,1.1-1.8c0-0.3-0.1-0.5-0.2-0.8c-0.1-0.3-0.3-0.4-0.6-0.4
		c-0.4,0-1,0.2-1.6,0.5c-0.6,0.3-1.2,0.6-1.6,0.7c0-0.4,0-0.8,0.1-1.2c0-0.4,0.1-0.8,0.1-1.2c0-0.6-0.2-1.3-0.7-2
		c-0.4-0.7-1-1.4-1.5-2c-0.6-0.6-1.2-1.1-1.8-1.5c-0.6-0.4-1.1-0.6-1.5-0.6c-0.4,0-0.7,0.2-1,0.6c-0.3,0.4-0.6,0.6-0.9,0.6
		c-0.4,0-0.8-0.2-1.1-0.6c-0.3-0.4-0.7-0.8-1.1-1.3c-0.4-0.5-0.9-1-1.4-1.4c-0.5-0.4-1.2-0.7-2-0.8c-0.4,0-0.7-0.2-0.9-0.5
		c-0.1-0.3-0.3-0.6-0.4-1c-0.1-0.4-0.3-0.7-0.6-1.1c-0.3-0.4-0.7-0.6-1.3-0.7c-1-0.2-1.8-0.4-2.5-0.7c-0.7-0.3-1.1-1-1.1-1.9
		c0-0.3,0-0.5,0.1-0.8c0.1-0.3,0.1-0.6,0.1-0.9c0-0.4-0.2-0.8-0.5-1.1c-0.3-0.3-0.6-0.5-0.9-0.5c-0.4,0-0.8,0.2-1.1,0.6
		c-0.3,0.4-0.5,0.9-0.7,1.4c-0.2,0.5-0.5,1-0.7,1.4c-0.3,0.4-0.6,0.6-1.1,0.6c-0.7,0-1.1-0.3-1.2-0.9c-0.1-0.6-0.1-1.1-0.1-1.5v-0.4
		c0-0.6-0.4-1.1-1.1-1.3c-0.8-0.3-1.3-0.4-1.7-0.4c-0.4,0-0.8,0.4-1.2,1.1c-0.4,0.8-0.8,1.1-1.2,1.1c-0.4,0-0.7-0.4-0.9-1.2
		c0-0.7,0.2-1.3,0.5-1.7c0.4-0.4,0.5-1,0.5-1.7c-0.4,0.4-0.7,0.8-0.7,1.1C299.7,46,299.7,46.4,299.6,46.8z M279.7,122.9
		c-0.2,0.4-0.3,0.6-0.3,0.8c0,0.2,0.1,0.3,0.4,0.3c0-0.1,0-0.2,0.1-0.2c0,0,0.1-0.1,0.1-0.2C280,123.5,279.9,123.3,279.7,122.9z
		 M282.9,63.6c0.7-0.4,1.1-0.7,1.1-1.1c0-0.4,0-0.9,0-1.4c-0.7,0.3-1.1,0.6-1.1,1.1C282.9,62.6,282.9,63.1,282.9,63.6z M287,32.3
		c0.1-0.1,0.1-0.2,0.1-0.3v-0.1c-0.4-0.3-0.8-0.6-1.4-1.1c-0.6-0.5-1-0.7-1.3-0.7c-0.2,0-0.4,0.1-0.6,0.2c-0.2,0.1-0.3,0.3-0.3,0.6
		c0,0.5,0.2,0.9,0.7,1.2c0.5,0.3,1.1,0.5,1.9,0.7c0.2,0,0.3,0,0.4-0.1C286.7,32.5,286.9,32.4,287,32.3z M288,46.7
		c0-0.4,0-0.7-0.1-0.7c0,0-0.2-0.1-0.3-0.3c0,0.2,0,0.3-0.1,0.4c-0.1,0.1-0.1,0.2-0.1,0.3C287.5,46.6,287.7,46.7,288,46.7z
		 M298,113.6c-0.8,0.2-1.4,0.2-1.8,0.2c-0.4,0-0.9,0.3-1.4,1.1c0,0.3,0.2,0.4,0.5,0.4C296.2,115.3,297.1,114.8,298,113.6z
		 M307.3,113.3c-0.1,0-0.2,0-0.2,0.1c0,0-0.1,0.1-0.2,0.1c0.1,0.1,0.1,0.2,0.1,0.4c0.1,0,0.2,0,0.2-0.1c0,0,0.1-0.1,0.2-0.1
		c0-0.1,0-0.2-0.1-0.2C307.3,113.5,307.3,113.4,307.3,113.3z M332.6,58.8c-0.1,0.2-0.2,0.3-0.2,0.3c0,0-0.1,0.2-0.2,0.3
		c0.1,0,0.2,0,0.2,0.1c0,0,0.2,0.1,0.3,0.1l0.3-0.3C332.9,59.2,332.8,59,332.6,58.8z M336.9,64c-0.2-0.4-0.3-0.5-0.4-0.5
		c-0.3,0-0.4,0.1-0.3,0.4c0,0.3,0,0.4-0.1,0.5L336.9,64z M339.2,70.7l0.1,0.3c0.3,0.3,0.6,0.4,0.9,0.4c0.4,0,0.8-0.2,1.2-0.7
		c0.4-0.5,0.5-1,0.5-1.7c0-0.4-0.2-0.6-0.7-0.6c-0.5,0-0.9-0.1-1.1-0.2c-0.4,0-0.9,0.1-1.3,0.4c-0.4,0.3-0.7,0.6-0.7,1.1
		c0,0.2,0.1,0.4,0.4,0.5C338.8,70.3,339,70.5,339.2,70.7z M338.8,94c-0.1,0-0.2-0.1-0.4-0.3c0,0.1,0,0.1-0.1,0.1c0,0-0.1,0-0.1,0.1
		v0.1l0.3,0.3c0.1-0.1,0.1-0.2,0.1-0.2C338.6,94.2,338.7,94.1,338.8,94z M346.9,69.1c0.2,0,0.3,0,0.4-0.1l-0.3-0.3h-0.3
		c0,0.1,0,0.2,0.1,0.2C346.9,68.9,346.9,69,346.9,69.1z"/>
	<path id="XMLID_85_" class="st0" d="M352.2,113.3c0.2-1.8,0.4-3.5,0.5-5.3c0.2-1.7,0.9-3.2,2.3-4.5c1.7-1.5,2.8-3.3,3.4-5.3
		c0.6-2,1-4,1.1-5.9c0.2-2,0.6-4,1.3-5.8c0.7-1.8,1.4-3.6,2.3-5.3c0.9-1.7,1.8-3.4,2.9-5.1c1-1.6,2-3.4,2.9-5.1c0.8-3.1,2-6,3.7-8.8
		c1.6-2.8,3.3-5.6,4.9-8.4c2.8-5.1,5.7-10.1,8.5-15.1c2.8-5,5.6-10.1,8.5-15.1c0.2-0.3,0.4-0.6,0.8-0.9c0.4-0.3,0.7-0.5,0.9-0.5
		c1.3,0.3,2.7,0.5,4,0.7c1.3,0.2,2.5,0.5,3.5,0.9c1,0.4,1.9,1.1,2.5,1.9c0.7,0.8,1,1.9,1,3.3c0,0.7-0.1,1.4-0.3,2.1
		c-0.2,0.7-0.3,1.4-0.3,2c0,0.4,0.2,0.9,0.5,1.3c0.3,0.4,0.5,0.9,0.5,1.3c0,0.6-0.3,1.2-0.9,1.8c-0.6,0.6-0.9,1.2-0.9,1.8
		c0,0.3,0,0.6,0.1,0.9c0,0.3,0.1,0.6,0.1,0.7c-0.3,0.3-0.4,0.5-0.4,0.7c0.4-0.4,1-1,1.8-1.7c0.8-0.7,1.4-1.1,1.8-1.1
		c0.5,0,0.9,0.2,1.1,0.5c0.2,0.3,0.3,0.6,0.3,1c0,0.4-0.1,0.9-0.3,1.5c-0.2,0.5-0.3,1-0.3,1.5c0,1,0.2,1.8,0.7,2.6
		c0.5,0.8,0.7,1.6,0.7,2.6c0,0.6-0.2,1.2-0.5,1.9c-0.3,0.6-0.5,1.2-0.5,1.6c0,0.4,0.2,0.9,0.6,1.3c0.4,0.4,0.9,0.8,1.4,1.2
		c0.5,0.4,1,0.8,1.4,1.2c0.4,0.4,0.6,0.9,0.6,1.4c0,0.3,0,0.5-0.1,0.8c0,0.3-0.1,0.5-0.1,0.7c0,0.5,0.1,1.1,0.2,1.6
		c0.1,0.5,0.2,1.1,0.2,1.6c0,1-0.4,1.8-1.1,2.5v0.1c0,0.6,0.3,1.1,1,1.5c0.7,0.4,1,1,1,1.7c0,0.4,0,0.8-0.1,1.2
		c-0.1,0.4-0.1,0.8-0.1,1.2c0,0.4,0.2,0.8,0.5,1c0.3,0.2,0.6,0.5,0.9,0.9c0.3,0.4,0.6,0.9,0.9,1.6c0.3,0.7,0.5,1.7,0.5,3
		c0,0.6,0.4,1.1,1.2,1.5c0.8,0.4,1.7,0.8,2.7,1.1c1,0.4,1.9,0.7,2.7,1c0.8,0.3,1.2,0.6,1.2,1c0,0.4-0.2,0.9-0.6,1.7
		c-0.4,0.8-0.6,1.6-0.6,2.3c0,0.5,0.1,1,0.4,1.3c-0.5,0.4-1.1,1-1.8,1.8c-0.7,0.8-1.1,1.2-1.1,1.4v0.8c0,1-0.1,2-0.4,3
		c-0.3,1-0.4,2-0.4,3c0,0.5,0,1,0.1,1.5c0.1,0.5,0.1,1,0.1,1.5c0,0.4-0.1,0.9-0.3,1.4c-0.2,0.5-0.3,1-0.3,1.4c0,0.4,0.1,0.8,0.4,1
		c0.3,0.2,0.5,0.4,0.8,0.7c0.3,0.2,0.5,0.5,0.8,0.8c0.3,0.3,0.4,0.7,0.4,1.3v0.8c1.3,1.2,2,2.5,2.1,4.1c0.1,1.6,0.2,3.2,0.4,4.8
		c0.2,1.4,0.4,2.8,0.8,4.2c0.4,1.4,0.5,2.8,0.5,4.3c0,0.7-0.1,1.4-0.3,2.1c-0.2,0.7-0.3,1.3-0.3,1.9c0,0.7,0.2,1.3,0.7,1.7
		c0.5,0.4,0.7,0.8,0.7,1.2c0,0.1-0.4,0.5-1.2,1.1s-1.7,1.4-2.8,2.2c-1.1,0.8-2.2,1.5-3.2,2.1c-1.1,0.6-1.9,0.9-2.4,0.9
		c-0.4,0-0.7-0.1-0.9-0.4c-0.2-0.3-0.5-0.4-0.7-0.4c-0.4,0.1-0.8,0.1-1.1,0.1c-0.3,0-0.6,0-0.9,0c-0.6,0-0.9-0.3-0.9-0.8
		c0-0.3,0-0.6,0.1-1c0-0.4,0.1-0.8,0.1-1.3c0-0.6-0.2-1.1-0.5-1.5c-0.3-0.4-0.6-0.7-1-1c-0.4-0.3-0.7-0.5-1-0.8
		c-0.3-0.3-0.5-0.6-0.5-0.9c0-0.1,0.1-0.5,0.3-1.1c0.2-0.7,0.5-1.4,0.7-2.1c0.3-0.7,0.5-1.4,0.7-1.9c0.2-0.6,0.3-0.8,0.3-0.7
		c0-0.2,0-0.3-0.1-0.3c-0.2,0-0.5,0.2-0.9,0.5c-0.4,0.3-0.8,0.5-1.1,0.5c-0.4,0-0.6-0.3-0.9-0.8c-0.2-0.5-0.4-1.2-0.5-2
		c-0.1-0.8-0.2-1.6-0.3-2.5c-0.1-0.8-0.1-1.6-0.1-2.2c0-0.9,0.2-1.9,0.6-2.9c0.4-1.1,0.6-2,0.6-2.7c0-0.3-0.2-0.6-0.5-0.9
		c-0.4-0.4-0.7-0.7-1.1-1.1c-0.4-0.4-0.8-0.9-1.1-1.4c-0.4-0.5-0.5-1.2-0.5-1.9c0-0.9,0.1-1.8,0.3-2.7c0.2-0.9,0.3-1.8,0.3-2.7
		c0-1.6-0.3-3.1-1-4.4c-0.7-1.3-1.6-2.6-2.7-3.7c-0.9-0.7-1.3-1.4-1.3-2c0-0.4,0.1-0.7,0.3-1.1c0.2-0.4,0.3-0.8,0.3-1.2
		c-0.1-0.4-0.2-0.7-0.3-1.1c-0.1-0.4-0.2-0.7-0.3-1.1c-0.2,0.5-0.5,1.2-1.1,2.1c-0.5,0.9-1,1.3-1.3,1.2c-0.5-0.3-1-0.4-1.5-0.4
		c-0.6,0-1.2,0.2-1.8,0.5c-0.6,0.3-1.1,0.6-1.7,1c-0.5,0.4-1,0.7-1.5,1c-0.5,0.3-0.9,0.5-1.3,0.5c-0.3,0-0.4-0.3-0.4-0.9
		c-0.4,0.3-1,0.6-1.5,1.1c-0.6,0.4-1.1,0.7-1.5,0.7c-0.4,0-0.9-0.4-1.4-1.1c-0.5-0.7-1-1.1-1.7-1.1c-0.4,0-1,0.1-1.6,0.4
		c-0.6,0.3-1.2,0.5-1.9,0.8c-0.6,0.3-1.2,0.5-1.7,0.8c-0.5,0.3-0.9,0.4-1.1,0.4c-0.4,0-0.6-0.2-0.7-0.5c-0.1-0.4-0.3-0.8-0.5-1.3
		c-0.2-0.5-0.5-0.9-0.8-1.3c-0.3-0.4-0.8-0.5-1.5-0.5c-1.1,0-1.6,0.4-1.6,1.1c0,1,0.4,1.8,1.3,2.5c0.9,0.7,1.3,1.4,1.3,2.1
		c0,0.2,0,0.4-0.1,0.7c-0.1,0.3-0.4,0.4-0.8,0.4c-0.6,0-1.2-0.2-1.7-0.5c-0.5-0.3-1.1-0.5-1.6-0.5c-0.7,0-1.3,0.6-1.8,1.7
		c-0.5,1.1-1,2.4-1.4,3.9c-0.4,1.5-0.9,2.9-1.4,4.4c-0.5,1.5-1,2.6-1.7,3.4c-0.1,0.2-0.2,0.3-0.3,0.4c-0.1,0.1-0.1,0.2-0.1,0.4
		c0,0.2,0,0.4,0.1,0.7c0,0.3,0.1,0.5,0.1,0.7c0,1.3-0.4,2.6-1.1,3.8c-0.7,1.2-1.3,2.4-1.7,3.7c-0.3,0.3-0.4,0.8-0.4,1.5
		c0,0.4,0,0.7,0.1,1.1c0,0.4,0.1,0.8,0.1,1.2c0,0.8-0.4,1.8-1.1,2.9c-0.7,1.2-1.1,2.5-1.1,4c0,2.9-0.7,5.1-2,6.4
		c-1.3,1.3-2.8,2-4.4,2c-0.7,0-1.4-0.1-2-0.3c-0.6-0.2-1.4-0.4-2.3-0.6h0.1c-0.9-1.5-1.6-3.1-2.1-4.8c-0.5-1.7-0.8-3.5-0.8-5.3
		c0-1.2,0.2-2.1,0.6-2.9c0.4-0.8,0.8-1.5,1.3-2.1c0.4-0.6,0.9-1,1.3-1.3c0.4-0.3,0.6-0.6,0.6-0.9c0-0.4-0.1-1-0.3-1.7
		c-0.2-0.7-0.3-1.3-0.3-1.8C350.9,114.9,351.3,114.1,352.2,113.3c0,0.1,0.1,0.3,0.3,0.7C352.3,113.7,352.2,113.4,352.2,113.3z
		 M360.8,104.1l-0.3-0.5c-0.2,0.2-0.3,0.4-0.3,0.5c0,0.2,0,0.4,0,0.5L360.8,104.1z M402,80c1.2-1,1.9-1.7,1.9-2.1
		c0-0.4-0.3-0.6-0.8-0.8c-1.1-0.4-1.7-1-2-1.9c-0.3-0.9-0.4-1.8-0.4-2.7c0-0.8,0.2-1.6,0.5-2.3c0.3-0.7,0.6-1.4,0.9-2.1l0.1-0.1
		L402,68c-0.7,0-1.3-0.1-1.7-0.3c-0.4-0.2-0.7-0.6-0.7-1.3c0-1.5-0.3-2.9-0.8-4.1c-0.5-1.2-0.8-2.5-0.9-3.8c0-0.7,0.1-1.4,0.2-2.1
		c0.1-0.7,0.2-1.4,0.2-2.1c0-0.4-0.1-0.8-0.3-1c-0.2-0.2-0.5-0.4-0.8-0.7c-0.3-0.2-0.6-0.4-0.8-0.7c-0.2-0.2-0.3-0.6-0.3-1
		c0-1-0.2-2-0.6-3.1c-0.4-1.1-0.6-2.3-0.6-3.5c0-0.3,0-0.5,0.1-0.7c0-0.2,0.1-0.4,0.1-0.6c0-0.6-0.3-1-0.8-1.2
		c-0.4,0-0.9,0.2-1.4,0.7c-0.5,0.5-0.8,0.9-1,1.3c1.6,0.5,2.3,1.1,2.3,1.7c0,0.2-0.3,0.9-0.9,2.1c-0.6,1.2-1.3,2.6-2.1,4
		c-0.8,1.4-1.4,2.7-2,3.8c-0.6,1.1-0.8,1.6-0.6,1.4c-0.4,0.4-0.7,0.8-0.9,1.3c-0.1,0.5-0.3,1-0.5,1.5c-0.2,0.5-0.5,1-0.8,1.4
		c-0.3,0.4-0.9,0.7-1.7,0.8c0,1.2-0.2,2.2-0.7,3.1c-0.5,0.9-0.9,1.8-1.3,2.8c-0.6,1.8-1.4,3.7-2.4,5.9c-1,2.1-1.5,4-1.5,5.6
		c0,1.1,0.9,1.6,2.7,1.6c0.8,0,1.6-0.2,2.5-0.5c0.9-0.3,1.7-0.5,2.5-0.5c0.4,0,0.8,0.2,1.2,0.5c0.4,0.3,0.7,0.5,1.1,0.5
		c0.4,0,0.8-0.2,1.2-0.5c1-0.9,2.2-1.4,3.8-1.6c1.6-0.2,2.7-0.3,3.5-0.3c0.5,0,0.9,0.2,1.2,0.5c0.3,0.3,0.5,0.6,0.7,1
		c0.2,0.4,0.4,0.7,0.5,1c0.1,0.3,0.2,0.5,0.4,0.5c0.2,0,0.8-0.5,2-1.5H402z M380.5,84.5c-0.1-0.1-0.3-0.2-0.5-0.4
		c-0.3-0.2-0.5-0.3-0.7-0.3L379,84c0.1,0.2,0.2,0.5,0.3,1c0.1,0.5,0.3,0.7,0.5,0.7c0.1-0.2,0.2-0.3,0.3-0.4
		C380.2,85.3,380.3,85,380.5,84.5z M401.4,49.2l-0.3-0.3c0,0.3,0,0.5,0.1,0.7c0-0.1,0-0.2,0.1-0.2C401.4,49.4,401.4,49.3,401.4,49.2
		z M409.2,68c-0.2-0.2-0.3-0.3-0.3-0.3c0,0,0-0.2-0.1-0.3c-0.2,0.2-0.3,0.3-0.5,0.5c-0.1,0.1-0.2,0.3-0.2,0.5c0,0.2,0.1,0.4,0.3,0.5
		L409.2,68z M414.9,109.5c0.1,0.1,0.2,0.2,0.3,0.2c0.1,0,0.2,0.1,0.3,0.2c0.1-0.2,0.2-0.3,0.3-0.3c0.1,0,0.1-0.2,0.1-0.3
		c0-0.1-0.1-0.2-0.2-0.2c-0.1,0-0.2-0.1-0.3-0.2c-0.1,0.2-0.2,0.3-0.2,0.3C415.1,109.2,415,109.3,414.9,109.5z M415.7,118.5
		l-0.3,0.3c0.2,0.2,0.4,0.3,0.5,0.3v-0.3v-0.1C415.9,118.6,415.8,118.5,415.7,118.5z M422.4,110.3c-0.3-0.2-0.5-0.3-0.6-0.4
		c-0.1-0.1-0.3-0.1-0.5-0.1c-0.3,0-0.6,0.2-0.9,0.5c-0.4,0.3-0.6,0.6-0.8,0.7c0.2,0.2,0.4,0.4,0.5,0.6c0.2,0.2,0.4,0.3,0.5,0.3
		c0.3-0.2,0.5-0.4,0.8-0.7C421.7,110.9,422,110.6,422.4,110.3z M425.6,123.6c-0.2-0.4-0.4-1.2-0.6-2.1c-0.2-1-0.4-1.5-0.6-1.5
		c-0.4,0-0.7,0.2-0.7,0.7c0,0.5-0.1,0.9-0.1,1.1c0,0.4,0,1,0.1,1.6c0,0.6,0.4,0.9,1.1,0.9L425.6,123.6z M423.8,131.9
		c0.1-0.1,0.1-0.2,0.1-0.3c-0.1-0.1-0.2-0.1-0.3-0.1l-0.1,0.3C423.6,131.8,423.7,131.9,423.8,131.9z"/>
	<path id="XMLID_97_" class="st0" d="M446.1,108.1c-0.6-0.4-1.2-0.5-1.9-0.5c-0.7,0-1.6,0.3-2.5,0.8c-1,0.5-1.8,0.9-2.4,1.1
		c0-1.4,0.2-2.6,0.6-3.4c0.4-0.8,0.6-1.6,0.6-2.3c0-1.2-0.8-2.5-2.3-4h0.1v-0.9c0-0.6-0.2-1.2-0.5-1.9c-0.4-0.6-0.7-1.2-1.1-1.8
		c-0.4-0.6-0.8-1.1-1.1-1.6c-0.4-0.5-0.5-1-0.5-1.4c0-0.1,0.2-0.3,0.5-0.7c0.3-0.4,0.6-0.7,0.9-1.1c0.3-0.4,0.6-0.7,0.9-1.1
		c0.3-0.4,0.5-0.6,0.5-0.8c0-0.3-0.3-0.6-0.9-1.1c-0.6-0.5-0.9-1-0.9-1.4c0-0.4,0.4-1,1.3-1.6c0.8-0.6,1.3-1.4,1.3-2.4
		c0-0.3,0-0.6-0.1-0.9c-0.1-0.3-0.1-0.6-0.1-1c0-1.3,0.4-2.6,1.3-3.7c0.9-1.1,1.4-2.3,1.6-3.5c1.9-0.9,2.8-2.3,2.8-4.1
		c0-0.6,0-1.1-0.1-1.5c0-0.1,0.1-0.2,0.2-0.5c0.1-0.2,0.3-0.3,0.5-0.3c1,0,1.6-0.4,2-1.1c0.4-0.8,0.8-1.4,1.2-2.1
		c1-2,2.3-3.6,3.9-4.8c1.6-1.2,3.2-2.6,4.7-4c0.6-0.6,1.4-1,2.3-1.1c0.9-0.1,1.7-0.3,2.5-0.6v-0.1c0.2,0.6,0.5,1.1,1.1,1.3
		c0.8-0.5,1.3-1.1,1.6-1.7c0.3-0.6,0.5-1.2,0.7-1.9c0.2-0.6,0.4-1.2,0.7-1.7c0.3-0.5,0.8-0.9,1.7-1.2v-0.7c0-1.2,0.3-2.3,0.9-3.3
		c0.6-1.1,1.3-2.1,2.2-3c0.9-0.9,1.8-1.8,2.9-2.5c1-0.8,1.9-1.4,2.7-2.1c0.2-0.2,0.4-0.3,0.8-0.3c0.3,0,0.5,0.1,0.7,0.4
		c0.2,0.3,0.4,0.4,0.5,0.4c0.3,0,0.6-0.2,0.9-0.5c0.3-0.3,0.6-0.7,0.9-1.1c0.3-0.4,0.6-0.9,0.9-1.4c0.4-0.5,0.9-1.1,1.5-1.7
		c0.5-0.6,1.2-0.9,1.9-0.9c1.2,0,1.8,0.4,2,1.2c0.2,0.8,0.3,1.6,0.4,2.4v0.9c0,0.7,0.3,1.4,0.9,1.9c0.6,0.6,0.9,1.4,0.9,2.3
		c0,0.4,0,0.9-0.1,1.5c0,0.5-0.1,1-0.1,1.5v0.8c0,0.5-0.1,0.9-0.2,1c-0.1,0.1-0.4,0.3-0.7,0.5c-0.3,0.2-0.7,0.4-1.2,0.8
		c-0.5,0.4-1,1-1.7,1.9c-0.7,1.2-1.3,1.9-1.7,1.9c-0.4,0-0.8-0.2-1.3-0.7c-0.5-0.5-1-0.7-1.3-0.7c-0.4,0-0.9,0.3-1.6,0.8
		c-0.7,0.5-1.4,1.2-2.1,2.1c-0.7,0.8-1.3,1.7-1.8,2.7c-0.5,0.9-0.8,1.8-0.8,2.6c0,1.7-0.4,2.5-1.2,2.5c-0.4,0-0.7-0.1-1.1-0.2
		c-0.4-0.1-0.9-0.2-1.4-0.2c-1,0-1.5,0.5-1.5,1.6c0,0.5,0.1,1,0.4,1.3c0.3,0.4,0.4,0.8,0.4,1.2c0,0.5-0.2,1-0.6,1.3
		c-0.4,0.3-0.9,0.5-1.4,0.5c-0.4,0-0.6-0.1-0.9-0.3c-0.2-0.2-0.6-0.3-1-0.3c-0.4,0-0.7,0.2-1,0.7c-0.3,0.4-0.5,0.9-0.5,1.3
		c0,0.2,0.1,0.3,0.4,0.4c0.3,0.1,0.5,0.2,0.8,0.3c0.3,0.1,0.5,0.2,0.8,0.3c0.3,0.1,0.4,0.3,0.4,0.5c0,0.5-0.3,1-0.9,1.4
		c-0.6,0.4-1.2,0.8-2,1.2c-0.8,0.4-1.4,0.8-2,1.3c-0.6,0.5-0.9,1-0.9,1.7c0,0.3,0,0.6-0.1,0.9c0,0.3-0.2,0.5-0.3,0.6
		c-0.9,0.3-1.6,0.7-2,1.4c-0.4,0.7-0.8,1.4-1.2,2.1c-0.4,0.7-0.7,1.4-1.1,2.2c-0.4,0.8-0.9,1.4-1.6,1.8c-2.5,1.5-3.6,3.4-3.5,5.7
		c0,0.7,0.1,1.4,0.3,2.1c0.2,0.7,0.3,1.3,0.3,1.8c0,1-0.4,2-1.1,3.1c-0.7,1.1-1.1,2.2-1.1,3.3c0,0.4,0.2,0.9,0.5,1.3
		c0.4,0.4,0.5,0.8,0.5,1.3c-0.1,0.5-0.2,1.1-0.3,1.8c-0.1,0.7-0.2,1.3-0.2,1.8c0,0.7,0.2,1.6,0.7,2.8c0.5,1.2,1.1,2.3,1.9,3.5
		c0.8,1.2,1.5,2.3,2.3,3.3c0.8,1,1.6,1.8,2.3,2.3c0.7,0.6,1.7,1.2,2.9,1.7s1.8,0.9,1.8,1.2c0.2,1.2,0.5,2,1.1,2.4
		c0.5,0.4,1.2,0.5,1.9,0.5c0.7,0,1.5-0.1,2.5-0.3c0.9-0.2,1.8-0.3,2.7-0.3c0.9,0,1.8,0,2.6,0.1c0.8,0.1,1.7,0.1,2.6,0.1
		c0.2,0,0.3,0,0.4-0.1c1.3-1.2,2.7-1.9,4.1-1.9c1.1,0,2.1,0.4,3.1,1.1c1,0.7,2,1.1,3,1.1c0.1,0,0.2,0,0.3-0.1
		c0.1-0.1,0.2-0.1,0.3-0.1c0-0.5-0.2-0.9-0.7-1.2c-0.4-0.3-0.9-0.5-1.4-0.8c-0.5-0.3-1-0.5-1.4-0.7c-0.4-0.2-0.7-0.6-0.7-1
		c0-0.5,0.5-1.2,1.5-1.9c1-0.8,1.8-1.1,2.5-1.1c0.2,0,0.3,0,0.3,0.1c0,0,0.2,0.1,0.3,0.1c1.2-1.4,2.3-2.6,3.1-3.7
		c0.8-1,1.6-2.1,2.4-3.2c0.8-1.1,1.3-2.1,1.5-2.9c0.2-0.5,0.5-1.2,0.9-1.9c0.4-0.8,0.9-1.5,1.5-2.1s1-1.2,1.5-1.7
		c0.5-0.4,0.9-0.7,1.3-0.7c0.2,0,0.4,0,0.5,0.1c0.2,0,0.4,0.1,0.5,0.1c0.7,0,1.4-0.3,2.1-0.9c0.7-0.6,1.4-1.3,1.9-2.1
		c0.6-0.8,1-1.5,1.4-2.1c0.4-0.7,0.5-1.1,0.5-1.3c0-0.7-0.3-1.2-0.9-1.6c-0.6-0.4-0.9-0.8-0.9-1.2c0-0.3,0.2-0.6,0.5-0.9
		c0.3-0.3,0.6-0.6,1-1c0.4-0.4,0.7-0.7,1-1.1c0.3-0.4,0.5-0.8,0.5-1.2c0-0.8-0.4-1.2-1.1-1.2c-2,0.4-4.1,0.9-6.1,1.3
		c-2,0.4-4.1,1.2-6.1,2.1c-1.2,0.6-2.5,0.9-3.7,0.9c-0.5,0-1.1,0-1.7-0.1c-0.6-0.1-1.2-0.1-1.8-0.1c-0.8,0-1.7,0-2.7,0.1
		c-1,0.1-1.6,0.6-1.7,1.6c-0.2,0.6-0.6,1.2-1.4,1.8c-0.8,0.6-1.5,1.1-2.3,1.6c-0.8,0.5-1.5,0.9-2.1,1.1c-0.6,0.3-0.8,0.4-0.7,0.4
		c-0.4,0-0.8-0.2-1.2-0.6c-0.4-0.4-0.8-0.6-1.2-0.6c-0.5,0-1,0.1-1.3,0.4c-0.4,0.3-0.7,0.6-1,0.9c-0.3,0.3-0.6,0.6-0.9,0.9
		c-0.3,0.3-0.7,0.4-1.3,0.4c-0.3,0-0.5-0.1-0.8-0.2c-0.3-0.1-0.4-0.4-0.4-0.7c0-0.4,0.2-0.9,0.7-1.3c0.5-0.4,0.9-0.9,1.3-1.4
		c-0.3-0.1-0.5-0.2-0.8-0.4c-0.3-0.2-0.5-0.3-0.7-0.3c-0.3,0-0.5,0.1-0.7,0.2c-0.2,0.1-0.4,0.2-0.6,0.2c-0.6,0-1.2-0.2-1.7-0.5
		c-0.5-0.3-1.1-0.5-1.6-0.5c-0.3,0-0.5,0.1-0.8,0.3c-0.3,0.2-0.5,0.3-0.8,0.3c-0.4,0-0.7-0.2-0.7-0.7c0-0.4-0.1-0.8-0.1-0.9v-2
		c0-1.1-0.2-1.6-0.7-1.6c-0.4,0-0.8,0.2-1.2,0.6c-0.4,0.4-0.8,0.6-0.9,0.6c-0.4,0-0.5-0.3-0.5-0.9c0-2,0.7-4,2.1-5.7
		c1.4-1.8,3.2-2.7,5.5-2.7c1.9-0.4,3.3-1,4.2-1.6c0.9-0.6,2-1.7,3.1-3.2c0.4-0.4,0.8-0.5,1.3-0.5c0.5,0.2,0.8,0.5,0.8,1.1
		c0.2,1.7,0.7,2.9,1.5,3.5c0.8,0.7,2.6,1,5.5,1c0.4,0,0.7-0.2,0.7-0.7c0-0.4-0.3-0.8-0.9-0.9c-0.6-0.2-1.3-0.4-2.1-0.5
		c-0.8-0.2-1.4-0.4-2.1-0.7c-0.6-0.3-0.9-0.7-0.9-1.3c0-0.5,0.3-1,0.9-1.3c0.6-0.3,1.3-0.5,2.1-0.7c0.8-0.1,1.5-0.2,2.2-0.3
		c0.7,0,1.2-0.1,1.3-0.1c0.4,0,0.8,0.1,1.1,0.3c0.3,0.2,0.7,0.3,1.1,0.3c0.9,0,1.8-0.4,2.9-1.3c1-0.8,2-1.3,3-1.3
		c1.2,0,2.2,0.2,3.1,0.7c0.9,0.5,1.6,1.4,2.1,2.7c0.4,0.5,0.6,0.9,0.8,1.1c-0.4-0.5-0.6-1-0.9-1.4c-0.2-0.4-0.5-1-0.7-1.7
		c1.5-2.6,2.9-4.6,4.1-5.9c1.2-1.4,3-2.1,5.3-2.1c1.1,0,2.3,0.4,3.7,1.1c1.4,0.8,2.1,1.8,2.1,3c0,0.5-0.3,1.1-0.9,1.7
		c-0.6,0.6-1.3,1.2-2.1,1.8c-0.8,0.6-1.4,1.2-2.1,1.7c-0.6,0.6-0.9,1.1-0.9,1.5c0,0.4,0.3,0.7,1,1c0.7,0.3,1.2,0.5,1.5,0.5
		c0.4,0,0.7-0.4,1.1-1.1c0.4-0.7,0.8-1.5,1.3-2.3c0.4-0.8,0.9-1.6,1.4-2.3c0.5-0.7,1.1-1.1,1.8-1.1c0.4,0,0.8,0.4,1.3,1.3
		c0.5,0.9,1,2,1.5,3.3c0.5,1.3,0.9,2.6,1.2,4.1c0.3,1.4,0.5,2.7,0.5,3.7c0,1.9,0,3.7-0.1,5.6c-0.1,1.9-0.1,3.7-0.1,5.6
		c0,0.7-0.2,1.8-0.5,3.3c-0.4,1.5-0.8,2.9-1.3,4.4c-0.5,1.5-1.1,2.8-1.8,3.9c-0.7,1.1-1.3,1.7-1.9,1.7c-0.3-0.1-0.6-0.3-1.1-0.7
		c-0.4-0.4-0.7-0.7-0.7-0.9c0-0.4,0.1-0.9,0.3-1.3c0.2-0.4,0.3-0.8,0.3-1.3c0-0.3-0.3-0.5-0.8-0.7c0.1,0-0.2,0.7-0.8,2.2
		c-0.6,1.5-1.3,3.1-2,5c-0.7,1.9-1.4,3.7-2,5.4c-0.6,1.7-0.9,2.8-0.9,3.3c0,0.6-0.2,1.1-0.5,1.4c-0.3,0.3-0.7,0.6-1.1,0.9
		c-0.4,0.3-0.8,0.6-1.1,0.9c-0.3,0.3-0.5,0.8-0.5,1.4c0,0.5-0.2,1.1-0.5,1.7c-0.3,0.6-0.6,1.1-1,1.5c-0.4,0.4-0.7,0.8-1.1,1.1
		c-0.4,0.3-0.6,0.5-0.7,0.5c-0.3,0-0.5-0.1-0.8-0.4c-0.3-0.3-0.7-0.6-1.2-1.1c0-0.6-0.1-0.9-0.4-0.9h-0.5c0,0.4,0.1,0.7,0.3,0.7
		c0.2,0,0.4,0,0.6,0.1c-0.5,2.2-1.7,3.3-3.6,3.3c-0.7,0-1-0.2-0.9-0.6c0.1-0.4-0.1-0.6-0.5-0.6c0,0.1,0,0.2-0.1,0.3
		c0,0.1-0.1,0.2-0.1,0.3c0,0.1,0.2,0.3,0.6,0.7c0.4,0.4,0.6,0.9,0.6,1.7c0,0.4-0.2,0.8-0.5,1c-0.3,0.2-0.6,0.3-0.7,0.3
		c-0.7,0-1.2-0.2-1.3-0.5c-0.2-0.3-0.6-1.1-1.2-2.3c-0.4,0.4-0.8,0.8-1.4,1.3c-0.6,0.5-0.9,0.9-0.9,1.1c0,0.3,0.2,0.5,0.7,0.6
		c0.4,0.1,0.7,0.6,0.7,1.3c0,0.2-0.1,0.4-0.4,0.8c-0.3,0.4-0.5,0.5-0.7,0.5c-0.3-0.1-0.6-0.1-0.9-0.1c-0.3,0-0.6,0-0.9,0
		c-1.2,0-2.5,0.1-3.9,0.4c-1.3,0.3-2.7,0.4-4,0.4c-1,0-1.9-0.2-2.9-0.7c-0.9-0.4-1.8-0.7-2.6-0.7c-0.7,0-1.4,0.2-2.2,0.6
		c-0.8,0.4-1.4,0.6-1.8,0.6c-0.1,0-0.4-0.4-0.9-1.1c-0.5-0.7-1-1.5-1.5-2.4c-0.5-0.9-1.2-2-2-3.3c-0.1-0.1-0.1-0.3-0.1-0.7
		c0-0.2,0-0.4,0.1-0.6c0-0.2,0.1-0.4,0.1-0.6c0-0.9-0.4-1.3-1.2-1.3c-0.3,0-0.6,0.2-0.9,0.7c-0.3,0.4-0.6,0.9-1,1.5
		c-0.4,0.5-0.8,1-1.3,1.5c-0.5,0.4-1,0.7-1.7,0.7c-0.9,0-1.7-0.6-2.4-1.7c-0.7-1.1-1.2-2.2-1.5-3.4c-0.4-1.2-1.2-2.4-2.4-3.5
		c-1.2-1.1-2.4-1.7-3.3-1.7c-0.3,0-0.6,0.1-0.9,0.3c-0.3,0.2-0.6,0.3-0.9,0.3c-0.4,0-0.6-0.2-0.7-0.7c0-0.3,0.4-0.7,1.1-1.2
		c0.7-0.5,1.1-1,1.1-1.5c0-0.2-0.3-0.4-0.8-0.5c-0.3,0-0.5,0-0.8,0.1s-0.5,0.1-0.8,0.1c-0.4,0-0.8-0.1-1.1-0.4
		c-0.3-0.3-0.5-0.7-0.5-1.2c0-0.7,0.2-1.2,0.6-1.6c0.4-0.4,0.8-0.7,1.3-0.9c0.5-0.3,0.9-0.5,1.3-0.8c0.4-0.3,0.6-0.7,0.6-1.3
		c0-0.4,0-0.8-0.1-1.1c0.3-0.2,0.5-0.3,0.7-0.4c0.2-0.1,0.4-0.2,0.6-0.3c-0.1-0.2-0.2-0.4-0.4-0.5L446.1,108.1z M445.2,77.1
		c-0.2-0.2-0.4-0.5-0.6-0.9c-0.2-0.4-0.4-0.6-0.5-0.6c-0.3,0-0.5,0.1-0.7,0.3c0.2,0.4,0.3,0.7,0.5,1c0.1,0.3,0.3,0.6,0.5,1
		L445.2,77.1z M451.3,76.7c-0.2-0.2-0.3-0.3-0.3-0.4c-0.1-0.1-0.1-0.2-0.1-0.3c-0.3,0.1-0.5,0.2-0.7,0.2c-0.2,0-0.5,0.1-0.7,0.2
		c0.1,0.2,0.2,0.4,0.2,0.5c0,0.2,0.1,0.3,0.2,0.3c0.2-0.1,0.4-0.2,0.7-0.3C450.8,76.9,451,76.8,451.3,76.7z M471.3,83.9
		c-0.2-0.2-0.5-0.4-1.1-0.5c-0.1,0-0.2,0.1-0.3,0.3c-0.1,0.2-0.1,0.3-0.1,0.4c0.1,0.2,0.2,0.4,0.3,0.5c0.1,0.2,0.2,0.4,0.3,0.5
		c0.2-0.2,0.3-0.3,0.4-0.5C470.8,84.5,471,84.2,471.3,83.9z M470.9,128c0.1,0,0.2,0,0.2,0.1c0,0,0.1,0.1,0.2,0.1
		c0-0.1,0-0.2,0.1-0.2c0,0,0.1-0.1,0.1-0.2l-0.3-0.3C471,127.7,470.9,127.8,470.9,128z M474.8,131.1c-0.2-0.4-0.4-0.5-0.5-0.5
		c-0.2,0-0.3,0-0.4,0.1c-0.1,0.1-0.2,0.2-0.4,0.3c0.2,0.2,0.3,0.3,0.3,0.4c0,0.1,0.2,0.2,0.3,0.4c0.2-0.2,0.3-0.3,0.4-0.3
		C474.6,131.4,474.7,131.3,474.8,131.1z M476.6,88.3v-0.5c0-0.2-0.1-0.3-0.3-0.3c-0.2,0-0.4-0.1-0.5-0.2c0,0.2,0,0.3-0.1,0.4
		c0,0.1-0.1,0.2-0.1,0.4c0,0.4,0.1,0.5,0.3,0.5C476,88.5,476.3,88.5,476.6,88.3z M480.4,129.2c-0.3,0.3-0.5,0.5-0.7,0.7
		c-0.2,0.2-0.3,0.4-0.3,0.5c0,0.2,0.1,0.4,0.3,0.5c0.2,0.2,0.4,0.4,0.5,0.5c0.2-0.2,0.4-0.3,0.6-0.5c0.2-0.1,0.3-0.3,0.3-0.5
		c0-0.2-0.1-0.4-0.2-0.6C480.7,129.7,480.5,129.5,480.4,129.2z M488.5,75.3H487c-0.4,0-0.6,0-0.7,0.1c-0.1,0-0.3,0.3-0.5,0.7
		c0.4,0.1,0.8,0.1,1.1,0.1c0.3,0,0.6,0,1,0L488.5,75.3z M487.2,81.6c-0.1-0.2-0.2-0.4-0.4-0.5c-0.1,0.2-0.2,0.3-0.3,0.3
		c-0.1,0-0.2,0.2-0.2,0.3c0,0.1,0.1,0.3,0.4,0.5c0.2-0.2,0.3-0.3,0.3-0.4C487,81.8,487.1,81.7,487.2,81.6z M492.6,77.9
		c-0.1,0-0.2,0-0.2-0.1c0,0-0.1-0.1-0.2-0.1c0.1,0,0,0.1-0.3,0.4c0.1,0,0.2,0,0.2,0.1c0,0,0.1,0.1,0.2,0.1
		C492.5,78.3,492.6,78.1,492.6,77.9z M501.3,69.5c0.4-0.1,0.9-0.2,1.3-0.2c0.4,0,0.9-0.2,1.5-0.5c-0.2-0.2-0.4-0.4-0.5-0.5
		c-0.2-0.2-0.3-0.3-0.4-0.3C502.2,68.5,501.6,69,501.3,69.5c-0.3,0.4-0.4,0.7-0.4,0.8L501.3,69.5z M502,108.8
		c-0.2,0.2-0.4,0.3-0.6,0.4c-0.2,0.1-0.3,0.2-0.3,0.3c0.2,0.5,0.3,1,0.4,1.3c0.4-0.4,0.7-0.6,0.7-0.5c0-0.3,0-0.5-0.1-0.7
		C502,109.3,502,109.1,502,108.8z M502.8,100.8c-0.3,0.3-0.4,0.5-0.4,0.8L502.8,100.8l0.3-0.1L502.8,100.8z M512.2,92.3
		c-0.2-1-0.4-2-0.6-2.9c-0.2-1-0.8-1.5-1.8-1.5c-0.5,0-1,0.4-1.5,1.3c-0.5,0.8-0.7,1.4-0.7,1.5c0,0.2,0.4,0.6,1.3,1.1
		c0.8,0.6,1.6,0.9,2.2,0.9c0.2,0,0.4,0,0.5-0.1C511.7,92.5,512,92.4,512.2,92.3z M508.4,98c0.2-0.2,0.3-0.4,0.3-0.5h-0.1l-0.3-0.1
		c0,0.1-0.1,0.3-0.3,0.7H508.4z"/>
	<path id="XMLID_114_" class="st0" d="M522.6,113.3c0.2-1.8,0.4-3.5,0.5-5.3c0.2-1.7,0.9-3.2,2.3-4.5c1.7-1.5,2.8-3.3,3.4-5.3
		c0.6-2,1-4,1.1-5.9c0.2-2,0.6-4,1.3-5.8c0.7-1.8,1.4-3.6,2.3-5.3c0.9-1.7,1.8-3.4,2.9-5.1c1-1.6,2-3.4,2.9-5.1c0.8-3.1,2-6,3.7-8.8
		c1.6-2.8,3.3-5.6,4.9-8.4c2.8-5.1,5.7-10.1,8.5-15.1c2.8-5,5.6-10.1,8.5-15.1c0.2-0.3,0.4-0.6,0.8-0.9c0.4-0.3,0.7-0.5,0.9-0.5
		c1.3,0.3,2.7,0.5,4,0.7c1.3,0.2,2.5,0.5,3.5,0.9c1,0.4,1.9,1.1,2.5,1.9c0.7,0.8,1,1.9,1,3.3c0,0.7-0.1,1.4-0.3,2.1
		c-0.2,0.7-0.3,1.4-0.3,2c0,0.4,0.2,0.9,0.5,1.3c0.3,0.4,0.5,0.9,0.5,1.3c0,0.6-0.3,1.2-0.9,1.8c-0.6,0.6-0.9,1.2-0.9,1.8
		c0,0.3,0,0.6,0.1,0.9c0,0.3,0.1,0.6,0.1,0.7c-0.3,0.3-0.4,0.5-0.4,0.7c0.4-0.4,1-1,1.8-1.7c0.8-0.7,1.4-1.1,1.8-1.1
		c0.5,0,0.9,0.2,1.1,0.5c0.2,0.3,0.3,0.6,0.3,1c0,0.4-0.1,0.9-0.3,1.5c-0.2,0.5-0.3,1-0.3,1.5c0,1,0.2,1.8,0.7,2.6
		c0.5,0.8,0.7,1.6,0.7,2.6c0,0.6-0.2,1.2-0.5,1.9c-0.3,0.6-0.5,1.2-0.5,1.6c0,0.4,0.2,0.9,0.6,1.3c0.4,0.4,0.9,0.8,1.4,1.2
		c0.5,0.4,1,0.8,1.4,1.2c0.4,0.4,0.6,0.9,0.6,1.4c0,0.3,0,0.5-0.1,0.8c0,0.3-0.1,0.5-0.1,0.7c0,0.5,0.1,1.1,0.2,1.6
		c0.1,0.5,0.2,1.1,0.2,1.6c0,1-0.4,1.8-1.1,2.5v0.1c0,0.6,0.3,1.1,1,1.5c0.7,0.4,1,1,1,1.7c0,0.4,0,0.8-0.1,1.2
		c-0.1,0.4-0.1,0.8-0.1,1.2c0,0.4,0.2,0.8,0.5,1c0.3,0.2,0.6,0.5,0.9,0.9c0.3,0.4,0.6,0.9,0.9,1.6c0.3,0.7,0.5,1.7,0.5,3
		c0,0.6,0.4,1.1,1.2,1.5c0.8,0.4,1.7,0.8,2.7,1.1c1,0.4,1.9,0.7,2.7,1c0.8,0.3,1.2,0.6,1.2,1c0,0.4-0.2,0.9-0.6,1.7
		c-0.4,0.8-0.6,1.6-0.6,2.3c0,0.5,0.1,1,0.4,1.3c-0.5,0.4-1.1,1-1.8,1.8c-0.7,0.8-1.1,1.2-1.1,1.4v0.8c0,1-0.1,2-0.4,3
		c-0.3,1-0.4,2-0.4,3c0,0.5,0,1,0.1,1.5c0.1,0.5,0.1,1,0.1,1.5c0,0.4-0.1,0.9-0.3,1.4c-0.2,0.5-0.3,1-0.3,1.4c0,0.4,0.1,0.8,0.4,1
		c0.3,0.2,0.5,0.4,0.8,0.7c0.3,0.2,0.5,0.5,0.8,0.8c0.3,0.3,0.4,0.7,0.4,1.3v0.8c1.3,1.2,2,2.5,2.1,4.1c0.1,1.6,0.2,3.2,0.4,4.8
		c0.2,1.4,0.4,2.8,0.8,4.2c0.4,1.4,0.5,2.8,0.5,4.3c0,0.7-0.1,1.4-0.3,2.1c-0.2,0.7-0.3,1.3-0.3,1.9c0,0.7,0.2,1.3,0.7,1.7
		c0.5,0.4,0.7,0.8,0.7,1.2c0,0.1-0.4,0.5-1.2,1.1s-1.7,1.4-2.8,2.2c-1.1,0.8-2.2,1.5-3.2,2.1c-1.1,0.6-1.9,0.9-2.4,0.9
		c-0.4,0-0.7-0.1-0.9-0.4c-0.2-0.3-0.5-0.4-0.7-0.4c-0.5,0.1-0.8,0.1-1.1,0.1s-0.6,0-0.9,0c-0.6,0-0.9-0.3-0.9-0.8
		c0-0.3,0-0.6,0.1-1c0-0.4,0.1-0.8,0.1-1.3c0-0.6-0.2-1.1-0.5-1.5c-0.3-0.4-0.6-0.7-1-1c-0.4-0.3-0.7-0.5-1-0.8
		c-0.3-0.3-0.5-0.6-0.5-0.9c0-0.1,0.1-0.5,0.3-1.1c0.2-0.7,0.5-1.4,0.7-2.1c0.3-0.7,0.5-1.4,0.7-1.9c0.2-0.6,0.3-0.8,0.3-0.7
		c0-0.2,0-0.3-0.1-0.3c-0.2,0-0.5,0.2-0.9,0.5c-0.4,0.3-0.8,0.5-1.1,0.5c-0.4,0-0.6-0.3-0.9-0.8c-0.2-0.5-0.4-1.2-0.5-2
		c-0.1-0.8-0.2-1.6-0.3-2.5c-0.1-0.8-0.1-1.6-0.1-2.2c0-0.9,0.2-1.9,0.6-2.9c0.4-1.1,0.6-2,0.6-2.7c0-0.3-0.2-0.6-0.5-0.9
		c-0.4-0.4-0.7-0.7-1.1-1.1c-0.4-0.4-0.8-0.9-1.1-1.4c-0.4-0.5-0.5-1.2-0.5-1.9c0-0.9,0.1-1.8,0.3-2.7c0.2-0.9,0.3-1.8,0.3-2.7
		c0-1.6-0.3-3.1-1-4.4c-0.7-1.3-1.6-2.6-2.7-3.7c-0.9-0.7-1.3-1.4-1.3-2c0-0.4,0.1-0.7,0.3-1.1c0.2-0.4,0.3-0.8,0.3-1.2
		c-0.1-0.4-0.2-0.7-0.3-1.1c-0.1-0.4-0.2-0.7-0.3-1.1c-0.2,0.5-0.5,1.2-1.1,2.1c-0.5,0.9-1,1.3-1.3,1.2c-0.5-0.3-1-0.4-1.5-0.4
		c-0.6,0-1.2,0.2-1.8,0.5c-0.6,0.3-1.1,0.6-1.7,1c-0.5,0.4-1,0.7-1.5,1c-0.5,0.3-0.9,0.5-1.3,0.5c-0.3,0-0.4-0.3-0.4-0.9
		c-0.4,0.3-1,0.6-1.5,1.1c-0.6,0.4-1.1,0.7-1.5,0.7c-0.4,0-0.9-0.4-1.4-1.1c-0.5-0.7-1-1.1-1.7-1.1c-0.4,0-1,0.1-1.6,0.4
		c-0.6,0.3-1.2,0.5-1.9,0.8c-0.6,0.3-1.2,0.5-1.7,0.8c-0.5,0.3-0.9,0.4-1.1,0.4c-0.4,0-0.6-0.2-0.7-0.5c-0.1-0.4-0.3-0.8-0.5-1.3
		c-0.2-0.5-0.5-0.9-0.8-1.3c-0.3-0.4-0.8-0.5-1.5-0.5c-1.1,0-1.6,0.4-1.6,1.1c0,1,0.4,1.8,1.3,2.5c0.9,0.7,1.3,1.4,1.3,2.1
		c0,0.2,0,0.4-0.1,0.7c-0.1,0.3-0.4,0.4-0.8,0.4c-0.6,0-1.2-0.2-1.7-0.5c-0.5-0.3-1.1-0.5-1.6-0.5c-0.7,0-1.3,0.6-1.8,1.7
		c-0.5,1.1-1,2.4-1.4,3.9c-0.4,1.5-0.9,2.9-1.4,4.4c-0.5,1.5-1,2.6-1.7,3.4c-0.1,0.2-0.2,0.3-0.3,0.4c-0.1,0.1-0.1,0.2-0.1,0.4
		c0,0.2,0,0.4,0.1,0.7c0,0.3,0.1,0.5,0.1,0.7c0,1.3-0.4,2.6-1.1,3.8c-0.7,1.2-1.3,2.4-1.7,3.7c-0.3,0.3-0.4,0.8-0.4,1.5
		c0,0.4,0,0.7,0.1,1.1c0,0.4,0.1,0.8,0.1,1.2c0,0.8-0.4,1.8-1.1,2.9c-0.7,1.2-1.1,2.5-1.1,4c0,2.9-0.7,5.1-2,6.4
		c-1.3,1.3-2.8,2-4.4,2c-0.7,0-1.4-0.1-2-0.3c-0.6-0.2-1.4-0.4-2.3-0.6h0.1c-0.9-1.5-1.6-3.1-2.1-4.8c-0.5-1.7-0.8-3.5-0.8-5.3
		c0-1.2,0.2-2.1,0.6-2.9c0.4-0.8,0.8-1.5,1.3-2.1c0.4-0.6,0.9-1,1.3-1.3c0.4-0.3,0.6-0.6,0.6-0.9c0-0.4-0.1-1-0.3-1.7
		c-0.2-0.7-0.3-1.3-0.3-1.8C521.3,114.9,521.7,114.1,522.6,113.3c0,0.1,0.1,0.3,0.3,0.7C522.7,113.7,522.6,113.4,522.6,113.3z
		 M531.2,104.1l-0.3-0.5c-0.2,0.2-0.3,0.4-0.3,0.5c0,0.2,0,0.4,0,0.5L531.2,104.1z M572.4,80c1.2-1,1.9-1.7,1.9-2.1
		c0-0.4-0.3-0.6-0.8-0.8c-1.1-0.4-1.7-1-2-1.9c-0.3-0.9-0.4-1.8-0.4-2.7c0-0.8,0.2-1.6,0.5-2.3c0.3-0.7,0.6-1.4,0.9-2.1l0.1-0.1
		l-0.1,0.1c-0.7,0-1.3-0.1-1.7-0.3c-0.4-0.2-0.7-0.6-0.7-1.3c0-1.5-0.3-2.9-0.8-4.1c-0.5-1.2-0.8-2.5-0.9-3.8c0-0.7,0.1-1.4,0.2-2.1
		c0.1-0.7,0.2-1.4,0.2-2.1c0-0.4-0.1-0.8-0.3-1c-0.2-0.2-0.5-0.4-0.8-0.7c-0.3-0.2-0.6-0.4-0.8-0.7c-0.2-0.2-0.3-0.6-0.3-1
		c0-1-0.2-2-0.6-3.1c-0.4-1.1-0.6-2.3-0.6-3.5c0-0.3,0-0.5,0.1-0.7c0-0.2,0.1-0.4,0.1-0.6c0-0.6-0.3-1-0.8-1.2
		c-0.4,0-0.9,0.2-1.4,0.7c-0.5,0.5-0.8,0.9-1,1.3c1.6,0.5,2.3,1.1,2.3,1.7c0,0.2-0.3,0.9-0.9,2.1c-0.6,1.2-1.3,2.6-2.1,4
		c-0.8,1.4-1.4,2.7-2,3.8c-0.6,1.1-0.8,1.6-0.6,1.4c-0.4,0.4-0.7,0.8-0.9,1.3c-0.1,0.5-0.3,1-0.5,1.5c-0.2,0.5-0.5,1-0.8,1.4
		c-0.3,0.4-0.9,0.7-1.7,0.8c0,1.2-0.2,2.2-0.7,3.1c-0.5,0.9-0.9,1.8-1.3,2.8c-0.6,1.8-1.4,3.7-2.4,5.9c-1,2.1-1.5,4-1.5,5.6
		c0,1.1,0.9,1.6,2.7,1.6c0.8,0,1.6-0.2,2.5-0.5c0.9-0.3,1.7-0.5,2.5-0.5c0.4,0,0.8,0.2,1.2,0.5c0.4,0.3,0.7,0.5,1.1,0.5
		c0.4,0,0.8-0.2,1.2-0.5c1-0.9,2.2-1.4,3.8-1.6c1.6-0.2,2.7-0.3,3.5-0.3c0.5,0,0.9,0.2,1.2,0.5c0.3,0.3,0.5,0.6,0.7,1
		c0.2,0.4,0.4,0.7,0.5,1c0.1,0.3,0.2,0.5,0.4,0.5c0.2,0,0.8-0.5,2-1.5H572.4z M550.9,84.5c-0.1-0.1-0.3-0.2-0.5-0.4
		c-0.3-0.2-0.5-0.3-0.7-0.3l-0.3,0.1c0.1,0.2,0.2,0.5,0.3,1c0.1,0.5,0.3,0.7,0.5,0.7c0.1-0.2,0.2-0.3,0.3-0.4
		C550.6,85.3,550.7,85,550.9,84.5z M571.8,49.2l-0.3-0.3c0,0.3,0,0.5,0.1,0.7c0-0.1,0-0.2,0.1-0.2C571.8,49.4,571.8,49.3,571.8,49.2
		z M579.6,68c-0.2-0.2-0.3-0.3-0.3-0.3c0,0,0-0.2-0.1-0.3c-0.2,0.2-0.3,0.3-0.5,0.5c-0.1,0.1-0.2,0.3-0.2,0.5c0,0.2,0.1,0.4,0.3,0.5
		L579.6,68z M585.3,109.5c0.1,0.1,0.2,0.2,0.3,0.2c0.1,0,0.2,0.1,0.3,0.2c0.1-0.2,0.2-0.3,0.3-0.3c0.1,0,0.1-0.2,0.1-0.3
		c0-0.1-0.1-0.2-0.2-0.2c-0.1,0-0.2-0.1-0.3-0.2c-0.1,0.2-0.2,0.3-0.2,0.3C585.4,109.2,585.4,109.3,585.3,109.5z M586.1,118.5
		l-0.3,0.3c0.2,0.2,0.4,0.3,0.5,0.3v-0.3v-0.1C586.3,118.6,586.2,118.5,586.1,118.5z M592.8,110.3c-0.3-0.2-0.5-0.3-0.6-0.4
		c-0.1-0.1-0.3-0.1-0.5-0.1c-0.3,0-0.6,0.2-0.9,0.5c-0.4,0.3-0.6,0.6-0.8,0.7c0.2,0.2,0.4,0.4,0.5,0.6c0.2,0.2,0.4,0.3,0.5,0.3
		c0.3-0.2,0.5-0.4,0.8-0.7C592.1,110.9,592.4,110.6,592.8,110.3z M596,123.6c-0.2-0.4-0.4-1.2-0.6-2.1c-0.2-1-0.4-1.5-0.6-1.5
		c-0.4,0-0.7,0.2-0.7,0.7c0,0.5-0.1,0.9-0.1,1.1c0,0.4,0,1,0.1,1.6c0,0.6,0.4,0.9,1.1,0.9L596,123.6z M594.2,131.9
		c0.1-0.1,0.1-0.2,0.1-0.3c-0.1-0.1-0.2-0.1-0.3-0.1l-0.1,0.3C594,131.8,594,131.9,594.2,131.9z"/>
	<path id="XMLID_126_" class="st0" d="M675,116.9c0.3,0,0.6,0.1,0.9,0.3c0.4,0.2,0.5,0.4,0.5,0.5c0,0.4-0.2,0.7-0.5,0.9
		c-0.4,0.3-0.5,0.5-0.5,0.7c0,0.4,0.3,0.8,0.8,0.9c0.5,0.2,0.8,0.7,0.8,1.6c0.1,0.7,0.2,1.4,0.2,2.1c0,0.7,0.1,1.4,0.1,2.1
		c0.4-0.8,0.8-1.4,1-1.9c0.2-0.5,0.3-1.2,0.3-2.2v-2c0-0.3,0.1-0.5,0.2-0.8c0.1-0.3,0.2-0.5,0.3-0.8c0.5,0.2,1.1,0.5,1.7,0.9
		c0.6,0.4,1.2,1,1.9,1.6c0.6,0.6,1.2,1.2,1.7,1.7c0.5,0.5,1,0.9,1.3,1.2c0.4,0.4,0.9,0.8,1.5,1.1c0.5,0.3,0.8,0.8,0.8,1.5
		c0,0.6-0.3,1-0.9,1.1c-0.6,0.1-1.3,0.2-2,0.4c0.3,0.8,0.6,1.3,1,1.6c0.4,0.3,0.8,0.5,1.1,0.6c0.3,0.1,0.6,0.3,0.9,0.5
		c0.3,0.2,0.4,0.6,0.4,1.2c0,0.5-0.1,1.2-0.4,2.1c-0.3,0.8-0.6,1.7-1.1,2.5c-0.5,0.8-1,1.5-1.6,2.1c-0.6,0.6-1.1,0.9-1.7,0.9
		s-1.1-0.2-1.6-0.5c-0.5-0.4-1.1-0.5-1.6-0.5c-0.5,0-0.9,0.2-1.2,0.5c-0.3,0.4-0.8,0.8-1.6,1.5c-0.3-0.4-0.6-0.6-1-0.7
		c-0.4-0.1-0.8-0.3-1.3-0.4c-0.4-0.1-0.8-0.3-1.2-0.6c-0.3-0.3-0.6-0.8-0.7-1.5c-0.2-1.2-0.5-2.7-1.1-4.3c-0.6-1.6-1.3-2.6-2.2-2.7
		c-0.5,0-1,0.1-1.3,0.4c0,0.6,0.3,1.2,0.9,1.7c0.6,0.5,0.9,1,0.9,1.7c0,0.2-0.2,0.5-0.5,0.9c-0.3,0.4-0.6,0.7-1,0.7
		c-0.4,0-0.9-0.3-1.3-0.8c-0.4-0.5-0.7-1.1-0.9-1.6c-0.4-1.2-1-2.1-2-2.9c-1-0.8-2-1.5-3-2c-1-0.5-1.9-0.9-2.7-1.1
		c-0.8-0.2-1.2-0.4-1.2-0.5c-0.4-0.9-0.9-1.6-1.5-2c-0.6-0.4-1.3-0.8-2-1.1c-0.7-0.3-1.4-0.6-2-1c-0.6-0.4-1.1-0.9-1.5-1.6
		c-0.8-0.5-1.5-1.1-2-1.7c-0.5-0.6-0.8-1.6-0.8-2.8c0-0.4-0.2-0.8-0.5-1.2c-0.3-0.4-0.7-0.7-1.1-1c-0.4-0.3-0.8-0.7-1.1-1.1
		c-0.3-0.4-0.5-0.9-0.5-1.4c0-0.4,0.1-0.9,0.4-1.5c0.3-0.5,0.4-1,0.4-1.5c-0.1-0.2-0.2-0.4-0.3-0.5c-0.1-0.2-0.2-0.4-0.4-0.5
		c-0.4,0.4-0.7,0.8-0.9,1.5c-0.3,0.6-0.5,1.2-0.7,1.8c-0.2,0.6-0.5,1.1-0.7,1.5c-0.3,0.4-0.6,0.7-0.9,0.7c-0.4,0-0.8-0.2-1-0.7
		c-0.2-0.5-0.4-1-0.5-1.7c-0.1-0.6-0.2-1.2-0.2-1.8c0-0.6-0.1-1-0.1-1.1c0-0.4,0-0.9,0.1-1.3c0.1-0.4,0.1-0.9,0.1-1.3
		c0-0.8-0.2-1.5-0.7-2c-0.4-0.5-1-1-1.5-1.3c-0.6-0.3-1.1-0.6-1.5-0.7c-0.4-0.2-0.7-0.4-0.7-0.5c0-0.4,0.3-0.7,0.9-1.1
		c0.6-0.4,0.9-0.7,0.9-1c0-0.3-0.1-0.5-0.4-0.8c-0.3-0.3-0.4-0.6-0.4-0.9c-1,0.4-1.5,0.9-1.7,1.3c-0.1,0.4-0.6,0.6-1.5,0.6
		c-0.4,0-0.8-0.1-0.9-0.2c-0.2-0.1-0.4-0.2-0.5-0.2c-0.1,0-0.2,0-0.2,0.1c0,0-0.1,0.1-0.2,0.1c0.2,0.1,0.4,0.2,0.5,0.2
		c0.2,0,0.4,0.1,0.7,0.1c0,1.1-0.3,2.2-1,3.4c-0.7,1.2-1.8,1.8-3.3,1.8c-0.5,0-0.8-0.3-0.8-0.9c0-0.4,0.2-0.8,0.6-1
		c0.4-0.2,0.8-0.4,1.3-0.5c-0.3-0.4-0.6-1-1.1-1.6c-0.5-0.6-1-0.9-1.4-0.9c-0.4,0-0.9,0.2-1.5,0.7c-0.7,0.5-1.1,0.7-1.4,0.7
		c-0.4,0-0.8-0.4-1.1-1.2c-0.3-0.8-0.6-1.2-1-1.2c-0.4,0-0.9,0.3-1.3,0.8c-0.4,0.5-0.7,1.1-0.7,1.6c0,0.4,0,0.9,0.1,1.4
		c0.1,0.5,0.1,1,0.1,1.4c0,0.4-0.1,0.8-0.4,1.2c-0.3,0.4-0.4,0.8-0.4,1.2c0,0.7,0.3,1.4,0.8,2.1c0.5,0.7,0.8,1.4,0.8,2.3
		c0,0.3,0,0.5-0.1,0.8c0,0.3-0.1,0.6-0.1,0.9c0,0.4,0.1,0.7,0.3,1.1c0.2,0.4,0.3,0.7,0.3,1.1c0,0.6-0.4,1-1.1,1.3
		c-0.8,0.2-1.4,0.7-1.8,1.4c0.4,0.4,1,0.6,1.7,0.5c0.7-0.1,1.2,0,1.3,0.3c0.6,1.3,1,2.8,1.2,4.5c0,0.4-0.1,0.7-0.3,0.7
		c-0.3,0-0.6-0.1-1.1-0.3c-0.4-0.2-0.9-0.3-1.3-0.3c0,0.4,0.1,0.8,0.3,1.2c0.2,0.4,0.3,0.7,0.3,0.9c0,0.5-0.3,1-0.9,1.4
		c-0.6,0.4-1.2,0.7-1.9,1c-0.7,0.3-1.7,0.5-2.9,0.8c-0.7,0-1.1-0.5-1.1-1.5c0-0.3,0-0.6,0.1-1c0-0.4,0.1-0.8,0.1-1.1
		c0-0.7-0.1-1.2-0.3-1.5c-0.2-0.3-0.4-0.5-0.7-0.6c-0.3-0.1-0.7-0.3-1.2-0.5c-0.5-0.2-1-0.6-1.5-1.2c0.4-0.8,0.9-1.4,1.3-1.9
		c0.4-0.4,1.1-1,2-1.6c-0.1-0.1-0.2-0.1-0.4-0.1c-0.3,0-0.6,0.2-1,0.7c-0.4,0.5-0.8,1-1.3,1.5c-0.4,0.5-0.9,1-1.4,1.5
		c-0.5,0.5-1,0.7-1.4,0.7c-0.5,0-0.8-0.3-0.8-0.8c0-0.7,0.3-1.3,0.9-1.7c0.6-0.4,0.9-0.8,0.9-1.1c0-0.1-0.1-0.1-0.4-0.1
		c-0.3,0-0.6,0-0.9-0.1c-0.4-0.1-0.7-0.2-0.9-0.3c-0.3-0.1-0.4-0.4-0.4-0.9c0-0.4,0.1-0.8,0.4-1.5c0.3-0.6,0.6-1.2,0.9-1.8
		c0.3-0.6,0.6-1.1,0.9-1.7c0.3-0.5,0.4-0.9,0.4-1.1c0-0.4-0.3-0.9-0.8-1.3c-0.5-0.4-0.8-1-0.8-1.7c0-0.7,0.3-1.5,0.9-2.3
		c0.6-0.8,1.3-1.2,2.1-1.2c0.2,0,0.4,0.1,0.7,0.3c0.3,0.2,0.5,0.3,0.7,0.3c0.2,0,0.3,0,0.4-0.1c0.1,0,0.2-0.1,0.3-0.1
		c-0.1-0.2-0.4-0.4-0.9-0.7c-0.5-0.3-1-0.6-1.6-0.9c-0.6-0.3-1.3-0.6-2.2-1.1c0-0.2,0-0.4,0.1-0.7c0.1-0.3,0.2-0.6,0.3-0.9
		c0-0.1,0-0.1,0.1-0.1c0,0,0.1,0,0.1-0.1c-0.1,0-0.1,0-0.1,0.1v-0.1v-0.1l-0.1,0.1c-0.2-0.4-0.3-0.9-0.4-1.3c-0.1-0.4-0.1-1-0.1-1.6
		c0-2.5,0-5.1,0.1-7.9c0.1-2.8,0.6-5.2,1.6-7.2c0.2-0.4,0.4-0.8,0.8-1.1c0.4-0.3,0.5-0.6,0.5-1c0-0.4-0.4-0.7-1.3-0.9
		c0.1-1.2,0.2-2.4,0.2-3.9c0-1.4,0.1-2.8,0.2-4.2c0.1-1.4,0.2-2.6,0.3-3.7c0.1-1.1,0.3-2,0.6-2.6c0.4-1,0.5-2.1,0.5-3.3
		c0-0.5,0-1.1-0.1-1.6c0-0.5-0.1-1.1-0.1-1.6c0-1,0.1-2,0.2-3c0.1-1,0.2-2,0.2-3v-0.7c0-2.7,1.3-4,3.9-4c0.4,0,0.9,0.1,1.3,0.2
		c0.4,0.1,0.8,0.2,1.2,0.2c0.2,0,0.3,0,0.5-0.1c0.1-0.1,0.3-0.1,0.5-0.1c-0.6-1.2-1.2-2.1-1.6-2.6c-0.4-0.5-0.7-1.1-0.7-1.8
		c0-0.3,0.1-0.7,0.3-1.3c0.2-0.6,0.5-1.2,0.9-1.9c0.4-0.7,0.9-1.2,1.5-1.7c0.6-0.5,1.2-0.7,1.9-0.7c0.4,0,0.6,0.1,0.7,0.3v-0.3
		c0.2-0.4,0.3-1,0.5-1.5c0.1-0.6,0.4-0.9,0.9-0.9c0.4,0,0.9,0.4,1.5,1.2c0.5,0.8,1,1.2,1.3,1.2c0.7,0,1.6-0.3,2.8-0.9
		c1.2-0.6,2.4-0.9,3.6-0.9c0.7,0,1.2,0.2,1.6,0.6c0.4,0.4,0.8,0.6,1.2,0.6c0.5,0,1.1-0.2,1.8-0.7c0.7-0.5,1.2-0.7,1.7-0.7
		c0.4,0,0.7,0.2,0.8,0.7c0.1,0.4,0.3,0.7,0.7,0.7c0.3,0,0.5-0.2,0.8-0.5c0.3-0.3,0.5-0.7,0.7-1.1c0.2-0.4,0.5-0.8,0.7-1.1
		c0.3-0.3,0.6-0.5,0.9-0.5c0.4,0,0.7,0.2,1.1,0.5c0.4,0.4,1,0.5,1.7,0.3s1.1,0.3,1.1,1.4v0.1c0,0.3,0.2,0.5,0.5,0.6
		c0.3,0.1,0.6,0.3,0.9,0.5c0.3,0.2,0.6,0.5,0.9,0.7c0.3,0.3,0.5,0.7,0.5,1.2c0,0.4,0.1,0.5,0.3,0.5c0.2,0,0.5-0.2,1.1-0.5
		c0.5-0.4,1-0.5,1.5-0.5c0.4,0,0.7,0.2,0.9,0.7c0.1,0.4,0.3,0.9,0.4,1.5c0.1,0.5,0.3,1,0.5,1.5c0.2,0.5,0.7,0.8,1.4,0.9
		c0,0.4,0.1,0.8,0.3,0.9c0.2,0.2,0.4,0.4,0.7,0.7c0.2-0.3,0.4-0.6,0.5-0.9c0.2-0.3,0.3-0.6,0.3-0.9v-0.7l0.4-0.3
		c0.4,0.4,0.8,0.9,1.2,1.5c0.4,0.7,0.8,1,1.2,1c0.3,0,0.5-0.3,0.7-1c0.2-0.7,0.5-1,0.9-1c0.4,0.2,0.9,0.3,1.5,0.3
		c0.5,0,0.8,0.3,0.8,0.9c0,0.4,0,0.8-0.1,1.1c-0.1,0.3-0.1,0.5-0.1,0.8c0,0.5,0.1,1,0.4,1.3c0.3,0.3,0.6,0.6,0.9,0.9
		c0.3,0.3,0.6,0.5,0.9,0.8c0.3,0.3,0.4,0.7,0.4,1.2c0,0.7,0.2,1.1,0.6,1.1c0.5,0,1-0.1,1.5-0.4c0.5-0.3,1.1-0.4,1.7-0.4
		c0.3,0.2,0.4,0.5,0.4,0.9c0,0.3-0.2,0.6-0.5,0.9c-0.3,0.3-0.7,0.6-1.1,0.9c-0.4,0.3-0.8,0.6-1.1,0.9c-0.3,0.3-0.5,0.6-0.5,0.9
		c0,0.4,0.1,0.7,0.5,1c0.3,0.3,0.8,0.5,1.4,0.5c0.3,0,0.4-0.2,0.5-0.5c0.1-0.3,0.2-0.6,0.3-0.9c0.1-0.3,0.2-0.6,0.3-0.9
		c0.1-0.3,0.4-0.5,0.7-0.5c0.2,0,0.3,0.4,0.5,1.3c0.1,0.9,0.2,1.6,0.2,2c0,0.3-0.2,0.6-0.6,0.9c-0.4,0.3-0.8,0.6-1.2,0.9
		c-0.4,0.3-0.8,0.6-1.2,0.9c-0.4,0.3-0.6,0.6-0.6,0.9c0,0.7,0.2,1.5,0.6,2.3c0.4,0.8,0.8,1.6,1.4,2.3c0.5,0.8,1,1.5,1.4,2.1
		c0.4,0.7,0.6,1.3,0.6,1.8c0,1.1-0.4,1.8-1.1,2.2c-0.8,0.4-1.6,0.8-2.5,1.3c-0.9,0.5-1.8,1.1-2.5,1.9c-0.8,0.8-1.1,2.1-1.1,3.9
		c0,0.4,0.1,0.7,0.2,1.1c0.1,0.4,0.2,0.7,0.2,1.1c0,0.3-0.1,0.4-0.4,0.5c-0.3,0.1-0.5,0.1-0.7,0.1c-0.6,0-1.1-0.2-1.5-0.5
		c-0.4-0.4-0.8-0.7-1.3-0.9c-0.1,0.2-0.3,0.5-0.6,0.9c-0.3,0.4-0.6,0.8-1,1.2c-0.4,0.4-0.7,0.8-0.9,1.1c-0.3,0.4-0.4,0.6-0.4,0.7
		c0.4,0,0.8-0.2,1.1-0.5c0.3-0.4,0.5-0.6,0.7-0.8c0.5,0,1,0.1,1.4,0.2c0.4,0.1,0.6,0.5,0.6,1c0,1-0.7,1.8-2.1,2.5
		c-1.4,0.7-2.5,1.1-3.4,1.1c-1,0-1.9-0.2-2.7-0.7c-0.8-0.4-1.6-0.7-2.3-0.7c-0.6,0-1.2,0.2-1.7,0.5c-0.5,0.4-1,0.7-1.4,1.1
		c-0.4,0.4-0.9,0.8-1.3,1.2c-0.4,0.4-0.9,0.6-1.3,0.7c-1.5,0.4-2.5,1.1-2.9,2.3c-0.4,1.2-0.7,2.7-0.7,4.5c0,0.3,0.1,0.5,0.3,0.7
		c0.2,0.2,0.5,0.3,0.8,0.5c0.3,0.1,0.6,0.3,0.8,0.5c0.2,0.2,0.3,0.6,0.3,1c0,0.4-0.1,0.9-0.3,1.3c-0.2,0.4-0.3,0.9-0.3,1.3
		c0,0.4,0.3,0.9,0.8,1.7c0.5,0.8,1.2,1.5,1.9,2.3c0.7,0.8,1.4,1.4,2.1,2c0.7,0.6,1.3,0.9,1.7,0.9c0.2,0,0.4-0.2,0.6-0.5
		c0.2-0.3,0.3-0.6,0.3-0.9c0-0.6-0.3-1.2-0.8-1.7c-0.5-0.5-1.1-1-1.7-1.4c-0.6-0.4-1.2-0.9-1.7-1.4c-0.5-0.5-0.8-1-0.8-1.5
		c0-0.2,0.1-0.3,0.3-0.5c0.2-0.1,0.4-0.2,0.5-0.2c0.4,0,0.8,0.2,1.1,0.5c0.3,0.4,0.8,0.5,1.5,0.5c0.8-0.1,1.5-0.2,2-0.3
		c0.5-0.1,1-0.1,1.5-0.1c0.9,0,1.6,0.2,2.1,0.6c0.5,0.4,1.3,1.1,2.4,2.1c0.7,0,1.2,0.2,1.5,0.6c0.3,0.4,0.6,0.9,0.8,1.4
		c0.2,0.5,0.4,1,0.7,1.5c0.2,0.5,0.6,0.8,1.3,1c0.4,0.1,0.5,0.4,0.5,0.8c0,0.7-0.3,1.5-0.9,2.3c-0.6,0.8-0.9,1.4-0.9,1.7
		c0,0.4,0.4,0.6,1.2,0.8l-0.5-1.9c0.4-0.1,0.9-0.2,1.3-0.3c0.4-0.1,0.9-0.2,1.3-0.2c0.3,0,0.5,0,0.7,0.1c0.2,0,0.4,0.1,0.6,0.1
		c0.2,0,0.4-0.1,0.7-0.3c0.3-0.2,0.6-0.3,0.9-0.3c0.3,0,0.8,0.2,1.6,0.7c0.8,0.4,1.6,1,2.5,1.6c0.8,0.6,1.6,1.3,2.3,1.9
		c0.7,0.7,1.1,1.2,1.1,1.5c0,0.3,0,0.5-0.1,0.8C675.2,116.3,675.1,116.6,675,116.9z M608.6,99.3c0.1-0.1,0.2-0.1,0.3-0.1v-0.1
		l-0.1-0.1C608.7,99.1,608.7,99.3,608.6,99.3z M613,110.3c0-0.1,0-0.2,0.1-0.3c0-0.1,0.1-0.2,0.1-0.4c-0.2,0.2-0.3,0.3-0.3,0.4
		C613,110.1,613,110.2,613,110.3z M616.2,113.2l-0.3-0.3h-0.3c0,0.2,0,0.3,0.1,0.3c0,0,0.1,0.1,0.1,0.2
		C615.9,113.5,616,113.4,616.2,113.2z M617.9,122.4c0.4-0.5,0.6-0.9,0.7-1.2c0-0.1,0-0.2-0.1-0.2c-0.1,0-0.2-0.2-0.3-0.3l-0.7,1.1
		c0,0.1,0,0.2,0.1,0.3C617.8,122.1,617.9,122.2,617.9,122.4z M622.4,74.4c0.1,0.4,0.2,0.9,0.2,1.4c0,0.5,0.1,1,0.1,1.4
		c0,0.8-0.1,1.4-0.3,1.9c-0.2,0.4-0.5,0.9-0.9,1.4c-0.4,0.5-0.7,1-1.1,1.7c-0.4,0.6-0.7,1.5-1,2.5c0,0.4,0.2,0.7,0.5,1.1
		c0.4,0,0.7-0.2,0.9-0.5c0.3-0.4,0.4-0.7,0.4-1.1v-0.4c0-0.7,0.3-1.1,0.8-1.1c1.2,0,2.4,0.2,3.4,0.5c1,0.3,2,0.5,2.9,0.5
		c1.6,0,3.2-0.4,4.7-1.2c1.5-0.8,2.7-1.2,3.6-1.2c0.4,0,0.9,0.2,1.4,0.5c0.5,0.4,0.9,0.5,1.3,0.5c0.4,0,0.8-0.2,1.1-0.6
		c0.3-0.4,0.5-0.9,0.5-1.4c0-0.2,0-0.4-0.1-0.5c0-0.2-0.1-0.4-0.1-0.5c0-0.2,0.1-0.5,0.3-1.1c0.2-0.5,0.4-0.8,0.7-0.8
		c0.4,0,0.7,0.1,1.1,0.3c0.4,0.2,0.7,0.4,1.1,0.6c0.4-1,1.1-1.6,2.1-1.7c0.9-0.2,1.7-0.5,2.2-1.1c1.2-1.2,2.4-2.3,3.8-3.1
		c1.4-0.8,2.7-1.8,4.1-2.7c1-0.7,1.8-1.7,2.4-3c0.6-1.3,0.9-2.4,0.9-3.4c0-0.2-0.3-0.7-1-1.6c-0.7-0.9-1.5-1.9-2.5-2.9
		c-1-1.1-2.1-2.1-3.2-3.1c-1.1-1-2.1-1.7-2.9-2.1c-0.4-0.2-0.8-0.5-1-0.9c-0.2-0.4-0.5-0.9-0.9-1.3h0.1c-0.2-0.3-0.4-0.8-0.7-1.7
		c-0.3-0.8-0.6-1.3-0.9-1.3c-0.5,0-1.2,0.3-2,0.9c-0.8,0.6-1.7,0.9-2.7,0.9c-0.3,0-0.4,0-0.5-0.1c-0.4-0.4-1-0.6-1.6-0.7
		c-0.6-0.1-1.2-0.2-1.8-0.2c-0.6,0-1.2-0.1-1.7-0.2c-0.6-0.1-1-0.3-1.4-0.7c-0.4-0.4-1-0.6-1.8-0.9c-0.8-0.2-1.5-0.4-2.3-0.5
		c-0.8-0.1-1.5-0.1-2.2-0.1c-0.7,0-1.2,0-1.6,0c-1.7,0-2.5,0.9-2.5,2.7c0,0.2,0,0.4,0.1,0.7c0,0.3,0.1,0.5,0.1,0.7
		c0,0.3,0,0.5-0.1,0.8c0,0.3-0.1,0.5-0.1,0.8c0,0.5,0.2,0.9,0.5,1.1c0.4,0.2,0.5,0.5,0.5,1.1c0,0.8-0.2,1.5-0.5,2
		c-0.4,0.5-0.8,1-1.2,1.4c-0.4,0.4-0.8,0.8-1.2,1.1c-0.4,0.3-0.5,0.6-0.5,0.9c0,0.4-0.2,0.9-0.7,1.3c-0.4,0.4-0.7,0.9-0.7,1.3
		c0,0.3,0.1,0.6,0.2,0.9c0.1,0.4,0.3,0.5,0.5,0.5c0.2-0.1,0.4-0.1,0.6-0.1c0.2,0,0.4,0,0.6,0c0.6,0,0.9,0.3,0.9,0.8
		c0,1-0.4,1.6-1.1,1.9c-0.8,0.3-1.5,0.5-2.2,0.5c0.3,0.6,0.6,1.2,0.9,1.7c0.3,0.5,0.5,1.2,0.5,1.9c0,0.3-0.1,0.6-0.2,0.9
		c-0.1,0.3-0.2,0.6-0.2,1c0,0.2,0.2,0.5,0.7,0.9C621.9,73.7,622.2,74.1,622.4,74.4z M633.4,44.7l0.4-0.5h-0.3
		C633.5,44.1,633.4,44.3,633.4,44.7z M636.2,43.3c-0.1,0-0.3,0.1-0.5,0.4c0.1,0.1,0.2,0.1,0.4,0.1h0.7
		C636.7,43.6,636.5,43.4,636.2,43.3z M638.9,45.3c0.2,0,0.4-0.1,0.6-0.3c0.2-0.2,0.3-0.4,0.3-0.5c0-0.6-0.1-0.9-0.3-0.9
		c-0.4,0-0.9,0-1.3,0.1c-0.4,0-0.8,0.1-1.3,0.2c0.4,0.3,0.6,0.5,0.9,0.8C638.1,44.9,638.4,45.2,638.9,45.3z M639.7,89.1
		c-0.5,0.2-0.8,0.4-0.9,0.8c0,0.4-0.1,0.8-0.2,1.2c0.4-0.4,0.6-0.7,0.7-0.9C639.4,89.9,639.5,89.5,639.7,89.1z M646.5,85.6
		c0.5,0,0.8-0.1,0.9-0.3c0.1-0.2,0.3-0.5,0.7-0.9c-0.4-0.2-0.6-0.3-0.7-0.3c-0.4,0-0.9,0.2-1.3,0.5c-0.4,0.3-0.8,0.6-1.2,0.9
		c0.3,0,0.5,0,0.8,0.1C645.9,85.6,646.2,85.6,646.5,85.6z M656.3,118.5h-0.9c-0.6,0-1.3,0.2-1.9,0.7c-0.7,0.5-1.3,1-1.8,1.4
		c0.8-0.2,1.5-0.3,2-0.5C654.2,120.1,655.1,119.5,656.3,118.5z M653.1,44.1c0.1,0,0.3-0.1,0.5-0.4c-0.1,0-0.2,0-0.2-0.1
		c0,0-0.1-0.1-0.2-0.1c-0.3,0-0.5,0.1-0.7,0.3C652.8,44.1,653,44.1,653.1,44.1z M653.5,75.7c0.4-0.2,0.6-0.3,0.8-0.3
		c-0.2-0.4-0.3-0.5-0.4-0.5c-0.2,0-0.3,0.1-0.3,0.3C653.6,75.4,653.5,75.6,653.5,75.7z M656.2,107.9l-0.4-0.7c-0.1,0-0.2,0-0.3,0.1
		c-0.1,0.1-0.2,0.1-0.4,0.1l0.4,0.7C655.6,108.1,655.9,108.1,656.2,107.9z M657,79.1c-0.1-0.1-0.2-0.1-0.3-0.1
		c-0.1,0.1-0.2,0.1-0.3,0.1l0.4,0.4c0-0.1,0-0.2,0.1-0.2C657,79.2,657,79.2,657,79.1z M657.4,49.7c-0.2,0.7-0.3,1.2-0.3,1.3
		c0,0.2,0.1,0.4,0.3,0.5l0.4-1.2C657.8,50.2,657.7,50,657.4,49.7z M660.3,120v-0.3c-0.1-0.1-0.1-0.2-0.1-0.3c0-0.1,0-0.2-0.1-0.2
		c0,0-0.1-0.1-0.1-0.2c0,0.2,0,0.3,0,0.5S660.2,119.8,660.3,120z M662.6,49.1c-0.1,0.2-0.2,0.4-0.3,0.6c-0.1,0.2-0.2,0.4-0.2,0.6
		c0,0.2,0.1,0.3,0.2,0.3c0.1,0,0.3,0.2,0.5,0.3l0.5-1.2c0-0.1-0.1-0.2-0.2-0.3C662.9,49.4,662.8,49.3,662.6,49.1z M662.9,54.5
		c-0.2,0-0.3,0.2-0.3,0.5c0.1,0,0.2-0.1,0.4-0.3C663,54.7,663,54.6,662.9,54.5z M665.4,116.4l-0.7,0.4c0,0.4,0,0.8,0,1.1
		c0,0.3,0.3,0.5,0.8,0.8c0-0.2,0-0.3,0.1-0.5c0-0.1,0.1-0.3,0.1-0.5c0-0.3,0-0.5-0.1-0.7C665.6,116.9,665.5,116.7,665.4,116.4z
		 M667.7,65.5c0.1-0.1,0.1-0.2,0.1-0.3l-0.3-0.3c0,0.1,0,0.2-0.1,0.2c0,0-0.1,0.1-0.1,0.2C667.4,65.4,667.5,65.5,667.7,65.5z
		 M668.3,119.9c0.2-0.2,0.3-0.3,0.3-0.4c-0.1-0.1-0.2-0.1-0.4-0.1l-0.1,0.3L668.3,119.9z M676.9,126.8c0.2-0.2,0.3-0.3,0.3-0.4
		L676.9,126.8z M678.6,129.9c-0.8,0.8-1.2,1.2-1.2,1.3c0,0.2,0.1,0.4,0.2,0.7c0.1,0.3,0.2,0.5,0.3,0.8c0.2-0.2,0.4-0.3,0.5-0.5
		c0.2-0.1,0.3-0.3,0.4-0.5c0-0.3,0-0.5-0.1-0.8C678.8,130.7,678.7,130.3,678.6,129.9z M681.7,129.7c0.1,0,0.2,0,0.2,0.1
		c0,0,0.1,0.1,0.2,0.1C682,129.8,681.9,129.7,681.7,129.7z M682.6,130.5c-0.2,0-0.3-0.1-0.3-0.3
		C682.3,130.5,682.4,130.5,682.6,130.5z"/>
</g>
<g id="XMLID_23_">
	<g id="XMLID_24_">
		<path id="XMLID_154_" class="st1" d="M714.1,117.1c-1.7,0-3.2,0.6-4.4,1.8c-1.2,1.2-1.8,2.7-1.8,4.4c0,1.7,0.6,3.2,1.8,4.4
			c1.2,1.2,2.7,1.8,4.4,1.8c1.7,0,3.2-0.6,4.4-1.8c1.2-1.2,1.8-2.7,1.8-4.4c0-1.7-0.6-3.2-1.8-4.4
			C717.3,117.7,715.8,117.1,714.1,117.1z"/>
	</g>
	<g id="XMLID_25_">
		<path id="XMLID_2_" class="st1" d="M742.6,85.2c2.9,0,5.9,1.5,9.1,4.5l0.6,0.6l5-5.2l-0.6-0.6c-4.6-4.4-9.2-6.7-13.8-6.7
			c-4,0-7.3,1.3-9.9,3.8c-2.6,2.5-3.9,5.8-3.9,9.6c0,2.9,0.8,5.6,2.5,7.9c1.6,2.3,4.6,4.5,9.1,6.8c3.9,2,6.4,3.6,7.5,4.9
			c1,1.2,1.5,2.6,1.5,4.2c0,1.9-0.8,3.5-2.3,5c-1.6,1.5-3.5,2.2-5.7,2.2c-3.3,0-6.4-1.7-9.4-5l-0.6-0.7l-4.9,5.5l0.4,0.5
			c1.7,2.2,3.9,3.9,6.5,5.2c2.6,1.2,5.4,1.9,8.2,1.9c4.3,0,8-1.4,10.9-4.3c2.9-2.9,4.4-6.4,4.4-10.5c0-2.9-0.9-5.6-2.6-8
			c-1.7-2.3-4.9-4.6-9.6-7.1h0c-3.6-1.9-6-3.5-7.1-4.8c-1.1-1.3-1.6-2.5-1.6-3.9c0-1.5,0.6-2.8,1.9-4
			C739.3,85.8,740.8,85.2,742.6,85.2z"/>
	</g>
	<g id="XMLID_28_">
		<path id="XMLID_158_" class="st1" d="M806.4,111.3c-1.8,3-3.5,5.2-5.1,6.6c-1.5,1.3-3.4,2.4-5.6,3.2c-2.2,0.8-4.5,1.2-6.8,1.2
			c-4.8,0-8.8-1.7-12.1-5.1c-3.1-3.2-4.8-7.3-5-12.3h42.8l0-0.8c-0.1-6.7-1.9-12.3-5.4-16.8c-5-6.3-11.7-9.5-20.1-9.5
			c-8.1,0-14.7,3.1-19.5,9.3c-3.8,4.8-5.7,10.4-5.7,16.6c0,6.6,2.3,12.6,6.8,17.8c4.5,5.3,10.9,7.9,18.8,7.9c3.6,0,6.8-0.6,9.7-1.7
			c2.9-1.1,5.5-2.7,7.7-4.8c2.3-2.1,4.3-4.9,6-8.3l0.4-0.7l-6.5-3.4L806.4,111.3z M772.7,98.1c1.2-3.7,2.9-6.6,5-8.5
			c3.2-2.9,7.1-4.3,11.5-4.3c2.7,0,5.3,0.6,7.8,1.7c2.4,1.1,4.4,2.7,5.9,4.5c1.3,1.7,2.4,3.9,3.2,6.5H772.7z"/>
	</g>
</g>
</svg>
